<?xml version="1.0" encoding="utf-8"?>
<!-- Generator: Adobe Illustrator 16.0.0, SVG Export Plug-In . SVG Version: 6.00 Build 0)  -->
<!DOCTYPE svg PUBLIC "-//W3C//DTD SVG 1.1//EN" "http://www.w3.org/Graphics/SVG/1.1/DTD/svg11.dtd">
<svg version="1.1" id="Layer_1" xmlns="http://www.w3.org/2000/svg" xmlns:xlink="http://www.w3.org/1999/xlink" x="0px" y="0px"
	 width="612px" height="612px" viewBox="0 0 612 612" enable-background="new 0 0 612 612" xml:space="preserve">
<g>
	<defs>
		<rect id="SVGID_1_" width="612" height="612"/>
	</defs>
	<clipPath id="SVGID_2_">
		<use xlink:href="#SVGID_1_"  overflow="visible"/>
	</clipPath>
	<path clip-path="url(#SVGID_2_)" fill-rule="evenodd" clip-rule="evenodd" d="M601.444,531.188
		c1.608,19.624,1.223,38.756-14.677,53.597c-10.709,9.991-23.517,14.469-38.205,13.671c-4.762-0.26-9.533-0.341-14.299-0.505
		c-1.057-5.433,3.676-7.503,6.486-10.48c4.504-4.77,8.947-9.652,14.231-13.637c11.519-3.232,18.926-10.556,22.163-22.031
		c5.126-6.371,11.264-11.774,17.083-17.481C596.132,532.459,598.024,529.894,601.444,531.188z"/>
	<path clip-path="url(#SVGID_2_)" fill-rule="evenodd" clip-rule="evenodd" d="M14.376,73.684
		c-2.531-30.882,9.497-50.88,35.018-57.976c8.041-2.236,16.277-1.929,24.499-1.168c1.316,4.258-2.271,6.099-4.448,8.458
		c-5.498,5.958-11.711,11.24-16.89,17.511c-4.237,3.729-8.217,7.72-12.004,11.909c-6.328,5.154-11.628,11.37-17.643,16.838
		C20.527,71.422,18.668,74.993,14.376,73.684z"/>
	<path clip-path="url(#SVGID_2_)" fill-rule="evenodd" clip-rule="evenodd" d="M601.444,340.559
		c0.807,9.53,0.772,19.059,0.03,28.591c-4.117,7.66-10.787,13.079-17.037,18.806c-2.092,1.916-4.91,4.941-7.679,0.363
		c-1.821-8.231-1.367-16.495-0.363-24.762C583.166,354.204,589.469,344.325,601.444,340.559z"/>
	<path clip-path="url(#SVGID_2_)" fill-rule="evenodd" clip-rule="evenodd" d="M601.444,188.055
		c0.807,9.529,0.772,19.059,0.03,28.591c-4.117,7.661-10.787,13.078-17.037,18.806c-2.092,1.916-4.91,4.939-7.679,0.365
		c-1.821-8.233-1.367-16.497-0.363-24.764C583.166,201.7,589.469,191.823,601.444,188.055z"/>
	<path clip-path="url(#SVGID_2_)" fill-rule="evenodd" clip-rule="evenodd" d="M179.386,597.98
		c-9.592,0.736-19.184,0.772-28.775-0.029c3.81-11.79,13.703-18.014,22.981-24.818c8.312-1.103,16.619-1.462,24.904,0.188
		c4.752,2.537,1.92,5.447-0.061,7.597C192.65,587.196,187.145,593.853,179.386,597.98z"/>
	<path clip-path="url(#SVGID_2_)" fill-rule="evenodd" clip-rule="evenodd" d="M141.021,597.98
		c-9.591,0.736-19.184,0.772-28.774-0.029c3.81-11.79,13.702-18.014,22.981-24.818c8.313-1.103,16.618-1.462,24.905,0.188
		c4.751,2.537,1.92,5.447-0.061,7.597C154.287,587.196,148.78,593.853,141.021,597.98z"/>
	<path clip-path="url(#SVGID_2_)" fill-rule="evenodd" clip-rule="evenodd" d="M160.213,14.518
		c9.593-0.737,19.183-0.772,28.775,0.028c-3.809,11.792-13.703,18.014-22.982,24.82c-8.312,1.102-16.618,1.463-24.904-0.188
		c-4.752-2.536-1.92-5.448,0.06-7.598C146.948,25.303,152.454,18.646,160.213,14.518z"/>
	<path clip-path="url(#SVGID_2_)" fill-rule="evenodd" clip-rule="evenodd" d="M14.381,226.188
		c-0.805-9.529-0.77-19.059-0.027-28.59c4.118-7.662,10.786-13.078,17.038-18.806c2.09-1.916,4.91-4.939,7.68-0.365
		c1.819,8.234,1.367,16.495,0.36,24.765C32.66,212.542,26.36,222.419,14.381,226.188z"/>
	<path clip-path="url(#SVGID_2_)" fill-rule="evenodd" clip-rule="evenodd" d="M14.381,378.693c-0.805-9.53-0.77-19.062-0.027-28.59
		c4.118-7.66,10.786-13.079,17.038-18.81c2.09-1.916,4.91-4.938,7.68-0.364c1.819,8.236,1.367,16.497,0.36,24.767
		C32.66,365.047,26.36,374.923,14.381,378.693z"/>
	<path clip-path="url(#SVGID_2_)" fill-rule="evenodd" clip-rule="evenodd" d="M601.444,302.432
		c0.807,9.531,0.772,19.061,0.03,28.591c-4.117,7.661-10.787,13.076-17.037,18.807c-2.092,1.916-4.91,4.94-7.679,0.364
		c-1.821-8.234-1.367-16.495-0.363-24.765C583.166,316.077,589.469,306.201,601.444,302.432z"/>
	<path clip-path="url(#SVGID_2_)" fill-rule="evenodd" clip-rule="evenodd" d="M102.656,597.98
		c-9.592,0.736-19.185,0.772-28.776-0.029c3.811-11.79,13.703-18.014,22.982-24.818c8.312-1.103,16.618-1.462,24.904,0.188
		c4.752,2.537,1.921,5.447-0.06,7.597C115.921,587.196,110.416,593.853,102.656,597.98z"/>
	<path clip-path="url(#SVGID_2_)" fill-rule="evenodd" clip-rule="evenodd" d="M14.381,264.314
		c-0.805-9.529-0.77-19.059-0.027-28.59c4.118-7.661,10.786-13.078,17.038-18.806c2.09-1.916,4.91-4.939,7.68-0.365
		c1.819,8.234,1.367,16.497,0.36,24.764C32.66,250.667,26.36,260.546,14.381,264.314z"/>
	<path clip-path="url(#SVGID_2_)" fill-rule="evenodd" clip-rule="evenodd" d="M601.444,226.181c0.807,9.53,0.772,19.06,0.03,28.591
		c-4.117,7.661-10.787,13.078-17.037,18.806c-2.092,1.916-4.91,4.938-7.679,0.365c-1.821-8.234-1.367-16.496-0.363-24.766
		C583.166,239.826,589.469,229.949,601.444,226.181z"/>
	<path clip-path="url(#SVGID_2_)" fill-rule="evenodd" clip-rule="evenodd" d="M14.381,340.567
		c-0.805-9.53-0.77-19.061-0.027-28.593c4.118-7.657,10.786-13.077,17.038-18.805c2.09-1.916,4.91-4.94,7.68-0.365
		c1.819,8.234,1.367,16.497,0.36,24.766C32.662,326.92,26.36,336.799,14.381,340.567z"/>
	<path clip-path="url(#SVGID_2_)" fill-rule="evenodd" clip-rule="evenodd" d="M601.444,454.938
		c0.807,9.527,0.772,19.058,0.03,28.59c-4.117,7.66-10.787,13.077-17.037,18.808c-2.092,1.914-4.91,4.938-7.679,0.364
		c-1.821-8.236-1.367-16.495-0.363-24.767C583.166,468.582,589.469,458.706,601.444,454.938z"/>
	<path clip-path="url(#SVGID_2_)" fill-rule="evenodd" clip-rule="evenodd" d="M121.848,14.518
		c9.592-0.737,19.183-0.772,28.775,0.028c-3.81,11.792-13.702,18.014-22.982,24.82c-8.313,1.102-16.618,1.463-24.903-0.188
		c-4.753-2.536-1.921-5.448,0.06-7.598C108.583,25.303,114.088,18.646,121.848,14.518z"/>
	<path clip-path="url(#SVGID_2_)" fill-rule="evenodd" clip-rule="evenodd" d="M14.381,302.44c-0.805-9.528-0.77-19.06-0.027-28.591
		c4.118-7.661,10.786-13.077,17.038-18.806c2.09-1.916,4.91-4.939,7.68-0.365c1.819,8.233,1.367,16.495,0.36,24.764
		C32.66,288.795,26.36,298.671,14.381,302.44z"/>
	<path clip-path="url(#SVGID_2_)" fill-rule="evenodd" clip-rule="evenodd" d="M14.381,493.069c-0.805-9.53-0.77-19.058-0.027-28.59
		c4.118-7.658,10.786-13.077,17.038-18.808c2.09-1.914,4.91-4.936,7.68-0.364c1.819,8.234,1.367,16.495,0.36,24.767
		C32.66,479.425,26.36,489.301,14.381,493.069z"/>
	<path clip-path="url(#SVGID_2_)" fill-rule="evenodd" clip-rule="evenodd" d="M601.444,264.306c0.807,9.53,0.772,19.06,0.03,28.592
		c-4.117,7.66-10.787,13.078-17.037,18.805c-2.092,1.916-4.91,4.94-7.679,0.364c-1.821-8.233-1.367-16.495-0.363-24.765
		C583.166,277.953,589.469,268.074,601.444,264.306z"/>
	<path clip-path="url(#SVGID_2_)" fill-rule="evenodd" clip-rule="evenodd" d="M14.381,531.196
		c-0.805-9.53-0.77-19.059-0.027-28.591c4.118-7.659,10.786-13.079,17.038-18.807c2.09-1.916,4.91-4.938,7.68-0.364
		c1.819,8.233,1.367,16.495,0.36,24.765C32.66,517.552,26.36,527.428,14.381,531.196z"/>
	<path clip-path="url(#SVGID_2_)" fill-rule="evenodd" clip-rule="evenodd" d="M601.444,493.062
		c0.807,9.532,0.772,19.061,0.03,28.591c-4.117,7.664-10.784,13.079-17.037,18.807c-2.092,1.916-4.91,4.942-7.679,0.366
		c-1.821-8.233-1.367-16.497-0.363-24.767C583.166,506.707,589.469,496.83,601.444,493.062z"/>
	<path clip-path="url(#SVGID_2_)" fill-rule="evenodd" clip-rule="evenodd" d="M83.482,14.514c9.593-0.73,19.185-0.771,28.775,0.032
		c-3.809,11.792-13.702,18.014-22.981,24.82c-8.312,1.102-16.618,1.465-24.904-0.188c-4.753-2.538-1.919-5.448,0.062-7.598
		C70.218,25.299,75.728,18.647,83.482,14.514z"/>
	<path clip-path="url(#SVGID_2_)" fill-rule="evenodd" clip-rule="evenodd" d="M14.381,149.937
		c-0.805-9.531-0.77-19.06-0.027-28.591c4.118-7.661,10.786-13.078,17.038-18.807c2.09-1.915,4.91-4.939,7.68-0.365
		c1.819,8.234,1.367,16.496,0.36,24.766C32.66,136.291,26.36,146.168,14.381,149.937z"/>
	<path clip-path="url(#SVGID_2_)" fill-rule="evenodd" clip-rule="evenodd" d="M601.444,378.686
		c0.807,9.528,0.772,19.059,0.03,28.591c-4.117,7.66-10.784,13.077-17.037,18.805c-2.092,1.916-4.91,4.94-7.679,0.364
		c-1.821-8.233-1.367-16.493-0.363-24.765C583.166,392.331,589.469,382.452,601.444,378.686z"/>
	<path clip-path="url(#SVGID_2_)" fill-rule="evenodd" clip-rule="evenodd" d="M601.444,73.676c0.807,9.53,0.772,19.06,0.03,28.591
		c-4.117,7.66-10.787,13.078-17.037,18.806c-2.092,1.915-4.91,4.939-7.679,0.365c-1.821-8.233-1.367-16.496-0.363-24.766
		C583.166,87.322,589.469,77.445,601.444,73.676z"/>
	<path clip-path="url(#SVGID_2_)" fill-rule="evenodd" clip-rule="evenodd" d="M371.211,597.98
		c-9.593,0.736-19.183,0.772-28.774-0.029c3.812-11.79,13.704-18.014,22.981-24.818c8.314-1.103,16.618-1.462,24.902,0.188
		c4.755,2.537,1.923,5.447-0.06,7.597C384.475,587.196,378.972,593.853,371.211,597.98z"/>
	<path clip-path="url(#SVGID_2_)" fill-rule="evenodd" clip-rule="evenodd" d="M14.381,111.81
		c-0.807-9.53-0.766-19.059-0.031-28.591c4.122-7.655,10.788-13.078,17.04-18.806c2.092-1.916,4.91-4.94,7.682-0.367
		c1.819,8.233,1.367,16.498,0.36,24.767C32.66,98.165,26.36,108.042,14.381,111.81z"/>
	<path clip-path="url(#SVGID_2_)" fill-rule="evenodd" clip-rule="evenodd" d="M601.444,416.811
		c0.807,9.53,0.772,19.061,0.03,28.591c-4.117,7.661-10.784,13.079-17.037,18.807c-2.092,1.916-4.91,4.94-7.679,0.364
		c-1.821-8.231-1.367-16.497-0.363-24.765C583.166,430.455,589.469,420.579,601.444,416.811z"/>
	<path clip-path="url(#SVGID_2_)" fill-rule="evenodd" clip-rule="evenodd" d="M236.942,14.518
		c9.592-0.737,19.185-0.772,28.775,0.028c-3.81,11.792-13.702,18.014-22.981,24.82c-8.313,1.102-16.618,1.463-24.904-0.188
		c-4.752-2.536-1.921-5.448,0.06-7.598C223.679,25.303,229.185,18.646,236.942,14.518z"/>
	<path clip-path="url(#SVGID_2_)" fill-rule="evenodd" clip-rule="evenodd" d="M409.577,597.98
		c-9.594,0.736-19.186,0.772-28.774-0.029c3.807-11.79,13.703-18.014,22.98-24.818c8.312-1.103,16.619-1.462,24.903,0.188
		c4.754,2.537,1.922,5.447-0.06,7.597C422.841,587.196,417.337,593.853,409.577,597.98z"/>
	<path clip-path="url(#SVGID_2_)" fill-rule="evenodd" clip-rule="evenodd" d="M505.498,14.518
		c9.592-0.737,19.184-0.772,28.777,0.028c-3.811,11.792-13.703,18.014-22.984,24.82c-8.311,1.102-16.619,1.463-24.902-0.188
		c-4.752-2.536-1.919-5.448,0.059-7.598C492.236,25.303,497.737,18.646,505.498,14.518z"/>
	<path clip-path="url(#SVGID_2_)" fill-rule="evenodd" clip-rule="evenodd" d="M467.131,14.518
		c9.597-0.737,19.186-0.772,28.778,0.028c-3.808,11.792-13.703,18.014-22.98,24.82c-8.315,1.102-16.618,1.463-24.904-0.188
		c-4.755-2.536-1.922-5.448,0.062-7.598C453.87,25.303,459.375,18.646,467.131,14.518z"/>
	<path clip-path="url(#SVGID_2_)" fill-rule="evenodd" clip-rule="evenodd" d="M447.943,597.98
		c-9.592,0.736-19.187,0.772-28.774-0.029c3.808-11.79,13.703-18.014,22.981-24.818c8.311-1.103,16.617-1.462,24.902,0.188
		c4.752,2.537,1.919,5.447-0.06,7.597C461.207,587.196,455.704,593.853,447.943,597.98z"/>
	<path clip-path="url(#SVGID_2_)" fill-rule="evenodd" clip-rule="evenodd" d="M428.77,14.518
		c9.592-0.737,19.184-0.772,28.773,0.028c-3.807,11.792-13.703,18.014-22.98,24.82c-8.312,1.102-16.618,1.463-24.903-0.188
		c-4.755-2.536-1.922-5.448,0.06-7.598C415.505,25.303,421.009,18.646,428.77,14.518z"/>
	<path clip-path="url(#SVGID_2_)" fill-rule="evenodd" clip-rule="evenodd" d="M390.403,14.518
		c9.592-0.737,19.184-0.772,28.776,0.028c-3.81,11.792-13.706,18.014-22.983,24.82c-8.312,1.102-16.618,1.463-24.904-0.188
		c-4.75-2.536-1.921-5.448,0.062-7.598C377.138,25.303,382.643,18.646,390.403,14.518z"/>
	<path clip-path="url(#SVGID_2_)" fill-rule="evenodd" clip-rule="evenodd" d="M486.309,597.98
		c-9.592,0.736-19.186,0.772-28.777-0.029c3.811-11.79,13.704-18.014,22.98-24.818c8.314-1.103,16.619-1.462,24.907,0.188
		c4.751,2.537,1.918,5.447-0.06,7.597C499.57,587.196,494.065,593.853,486.309,597.98z"/>
	<path clip-path="url(#SVGID_2_)" fill-rule="evenodd" clip-rule="evenodd" d="M352.041,14.518
		c9.589-0.737,19.181-0.772,28.772,0.028c-3.81,11.792-13.702,18.014-22.979,24.82c-8.315,1.102-16.618,1.463-24.907-0.188
		c-4.751-2.536-1.919-5.448,0.061-7.598C338.772,25.303,344.28,18.646,352.041,14.518z"/>
	<path clip-path="url(#SVGID_2_)" fill-rule="evenodd" clip-rule="evenodd" d="M14.381,454.945
		c-0.805-9.532-0.77-19.061-0.027-28.591c4.118-7.66,10.786-13.079,17.038-18.807c2.09-1.916,4.91-4.938,7.68-0.364
		c1.819,8.231,1.367,16.495,0.36,24.765C32.662,441.298,26.36,451.177,14.381,454.945z"/>
	<path clip-path="url(#SVGID_2_)" fill-rule="evenodd" clip-rule="evenodd" d="M313.675,14.518
		c9.592-0.737,19.18-0.772,28.773,0.028c-3.811,11.792-13.703,18.014-22.98,24.82c-8.315,1.102-16.62,1.463-24.905-0.188
		c-4.753-2.536-1.922-5.448,0.061-7.598C300.408,25.303,305.915,18.646,313.675,14.518z"/>
	<path clip-path="url(#SVGID_2_)" fill-rule="evenodd" clip-rule="evenodd" d="M524.672,597.98
		c-9.593,0.736-19.182,0.772-28.774-0.029c3.812-11.788,13.699-18.014,22.981-24.818c8.311-1.103,16.617-1.462,24.902,0.188
		c4.756,2.537,1.923,5.447-0.061,7.597C537.937,587.196,532.432,593.853,524.672,597.98z"/>
	<path clip-path="url(#SVGID_2_)" fill-rule="evenodd" clip-rule="evenodd" d="M275.309,14.518
		c9.593-0.737,19.185-0.772,28.774,0.028c-3.809,11.792-13.702,18.014-22.981,24.82c-8.313,1.102-16.618,1.463-24.903-0.188
		c-4.752-2.536-1.922-5.448,0.061-7.598C262.045,25.303,267.548,18.646,275.309,14.518z"/>
	<path clip-path="url(#SVGID_2_)" fill-rule="evenodd" clip-rule="evenodd" d="M217.751,597.98
		c-9.593,0.736-19.184,0.772-28.775-0.029c3.809-11.79,13.703-18.014,22.983-24.818c8.312-1.103,16.618-1.462,24.903,0.188
		c4.752,2.537,1.92,5.447-0.061,7.597C231.015,587.196,225.511,593.853,217.751,597.98z"/>
	<path clip-path="url(#SVGID_2_)" fill-rule="evenodd" clip-rule="evenodd" d="M332.847,597.98
		c-9.592,0.736-19.184,0.772-28.776-0.029c3.812-11.79,13.702-18.014,22.983-24.818c8.312-1.103,16.619-1.462,24.904,0.188
		c4.75,2.537,1.919,5.447-0.061,7.597C346.108,587.196,340.604,593.853,332.847,597.98z"/>
	<path clip-path="url(#SVGID_2_)" fill-rule="evenodd" clip-rule="evenodd" d="M601.444,149.929c0.807,9.53,0.772,19.059,0.03,28.59
		c-4.117,7.662-10.787,13.078-17.037,18.806c-2.092,1.916-4.91,4.939-7.679,0.365c-1.821-8.233-1.367-16.495-0.363-24.765
		C583.166,163.575,589.469,153.696,601.444,149.929z"/>
	<path clip-path="url(#SVGID_2_)" fill-rule="evenodd" clip-rule="evenodd" d="M601.444,111.803
		c0.807,9.529,0.772,19.059,0.03,28.59c-4.117,7.66-10.787,13.077-17.037,18.807c-2.092,1.915-4.91,4.938-7.679,0.365
		c-1.821-8.235-1.367-16.497-0.363-24.766C583.166,125.448,589.469,115.571,601.444,111.803z"/>
	<path clip-path="url(#SVGID_2_)" fill-rule="evenodd" clip-rule="evenodd" d="M256.116,597.98
		c-9.592,0.736-19.184,0.772-28.774-0.029c3.809-11.79,13.702-18.014,22.981-24.818c8.312-1.103,16.618-1.462,24.903,0.188
		c4.752,2.537,1.921,5.447-0.06,7.597C269.381,587.196,263.875,593.853,256.116,597.98z"/>
	<path clip-path="url(#SVGID_2_)" fill-rule="evenodd" clip-rule="evenodd" d="M14.381,188.062c-0.805-9.53-0.77-19.06-0.027-28.591
		c4.118-7.661,10.786-13.079,17.038-18.807c2.09-1.916,4.91-4.938,7.68-0.365c1.819,8.235,1.367,16.497,0.36,24.766
		C32.66,174.417,26.36,184.294,14.381,188.062z"/>
	<path clip-path="url(#SVGID_2_)" fill-rule="evenodd" clip-rule="evenodd" d="M14.381,416.816
		c-0.805-9.528-0.77-19.059-0.027-28.591c4.118-7.655,10.786-13.077,17.038-18.803c2.09-1.916,4.91-4.94,7.68-0.366
		c1.819,8.233,1.367,16.493,0.36,24.765C32.662,403.171,26.36,413.052,14.381,416.816z"/>
	<path clip-path="url(#SVGID_2_)" fill-rule="evenodd" clip-rule="evenodd" d="M198.578,14.518
		c9.592-0.737,19.184-0.772,28.775,0.028c-3.81,11.792-13.702,18.014-22.981,24.82c-8.313,1.102-16.619,1.463-24.904-0.188
		c-4.752-2.536-1.92-5.448,0.061-7.598C185.312,25.303,190.819,18.646,198.578,14.518z"/>
	<path clip-path="url(#SVGID_2_)" fill-rule="evenodd" clip-rule="evenodd" d="M294.481,597.98
		c-9.592,0.736-19.184,0.772-28.774-0.029c3.809-11.79,13.702-18.014,22.981-24.818c8.312-1.103,16.618-1.462,24.903,0.188
		c4.751,2.537,1.923,5.447-0.061,7.597C307.746,587.196,302.242,593.853,294.481,597.98z"/>
	<path clip-path="url(#SVGID_2_)" fill-rule="evenodd" clip-rule="evenodd" fill="#010101" d="M41.279,593.814
		c-9.572-4.341-17.076-10.783-21.208-20.644c2.311-6.211,7.843-9.642,12.328-13.944c2.267-2.175,4.986-2.612,7.677-0.428
		c4.537,6.484,10.438,11.558,16.935,16.015C55.247,583.989,46.998,587.869,41.279,593.814z"/>
	<path clip-path="url(#SVGID_2_)" fill-rule="evenodd" clip-rule="evenodd" fill="#010101" d="M576.5,20.195
		c10.051,3.716,15.754,11.415,19.455,20.95c-4.279,7.144-9.352,13.446-17.611,16.366c-6.197-4.942-8.7-13.312-16.104-17.152
		c-2.257-2.601-2.14-5.358,0.093-7.72C566.656,28.065,570.191,22.551,576.5,20.195z"/>
	<path clip-path="url(#SVGID_2_)" fill-rule="evenodd" clip-rule="evenodd" d="M543.863,14.518
		c9.075-0.786,18.088-0.966,26.755,2.513c-3.736,10.546-12.374,16.511-21.148,22.368c-8.271,1.02-16.524,1.444-24.761-0.24
		c-4.715-2.579-1.843-5.467,0.127-7.604C530.618,25.288,536.115,18.638,543.863,14.518z"/>
	<path clip-path="url(#SVGID_2_)" fill-rule="evenodd" clip-rule="evenodd" d="M16.891,567.338
		c-3.525-8.614-3.32-17.586-2.539-26.605c4.112-7.653,10.774-13.063,17.015-18.789c2.082-1.908,4.877-4.956,7.686-0.426
		c1.85,8.185,1.334,16.402,0.415,24.626C33.632,554.974,27.531,563.542,16.891,567.338z"/>
	<path clip-path="url(#SVGID_2_)" fill-rule="evenodd" clip-rule="evenodd" d="M577.905,56.688
		c6.014-5.181,12.032-10.362,18.05-15.542c6.377,6.592,5.812,14.826,5.512,22.995c-4.043,7.598-10.627,12.98-16.827,18.63
		c-2.268,2.066-5.412,5.467-8.102,0.004C575.579,74.002,573.754,65.188,577.905,56.688z"/>
	<path clip-path="url(#SVGID_2_)" fill-rule="evenodd" clip-rule="evenodd" d="M41.279,593.814
		c2.537-8.289,11.192-11.577,15.345-18.546c8.332-5.316,17.318-2.864,26.148-2.205c5.572,2.342,2.658,5.596,0.436,8.017
		c-5.727,6.236-11.204,12.823-18.915,16.893C56.191,598.933,48.523,597.537,41.279,593.814z"/>
	<path clip-path="url(#SVGID_2_)" fill-rule="evenodd" clip-rule="evenodd" fill="#050505" d="M83.482,14.514
		c-7.033,7.558-14.066,15.115-21.1,22.671c-3.188,3.583-6.864,4.978-11.401,2.515c6.081-9.787,16.486-15.682,22.912-25.16
		C77.087,13.727,80.285,13.713,83.482,14.514z"/>
	<path clip-path="url(#SVGID_2_)" fill-rule="evenodd" clip-rule="evenodd" fill="#050505" d="M37.163,62.249
		c-7.604,6.99-15.209,13.98-22.813,20.971c-0.804-3.18-0.793-6.359,0.027-9.536c9.536-6.379,15.464-16.723,25.312-22.762
		C42.172,55.429,40.765,59.082,37.163,62.249z"/>
	<path clip-path="url(#SVGID_2_)" fill-rule="evenodd" clip-rule="evenodd" fill="#040404" d="M440.28,575.314
		c-7.037,7.547-14.078,15.094-21.111,22.637c-3.196,0.815-6.393,0.825-9.592,0.029c7.033-7.551,14.066-15.104,21.099-22.652
		C433.877,572.274,437.072,572.28,440.28,575.314z"/>
	<path clip-path="url(#SVGID_2_)" fill-rule="evenodd" clip-rule="evenodd" fill="#040404" d="M401.914,575.314
		c-7.038,7.547-14.075,15.094-21.111,22.637c-3.195,0.815-6.393,0.825-9.592,0.029c7.032-7.551,14.066-15.104,21.099-22.652
		C395.51,572.274,398.71,572.28,401.914,575.314z"/>
	<path clip-path="url(#SVGID_2_)" fill-rule="evenodd" clip-rule="evenodd" fill="#040404" d="M332.847,597.98
		c7.035-7.551,14.067-15.104,21.101-22.652c3.197-3.054,6.396-3.048,9.601-0.014c-7.038,7.547-14.074,15.094-21.111,22.637
		C339.24,598.767,336.048,598.776,332.847,597.98z"/>
	<path clip-path="url(#SVGID_2_)" fill-rule="evenodd" clip-rule="evenodd" fill="#040404" d="M478.646,575.314
		c-7.04,7.547-14.078,15.094-21.114,22.637c-3.192,0.815-6.392,0.825-9.588,0.029c7.032-7.551,14.066-15.104,21.099-22.652
		C472.238,572.274,475.439,572.28,478.646,575.314z"/>
	<path clip-path="url(#SVGID_2_)" fill-rule="evenodd" clip-rule="evenodd" fill="#040404" d="M601.444,416.811
		c-7.591,6.992-15.183,13.983-22.778,20.979c-3.053-3.185-3.057-6.365,0.016-9.542c7.595-6.991,15.195-13.98,22.793-20.971
		C602.276,410.457,602.266,413.636,601.444,416.811z"/>
	<path clip-path="url(#SVGID_2_)" fill-rule="evenodd" clip-rule="evenodd" fill="#040404" d="M294.481,597.98
		c7.034-7.551,14.067-15.104,21.101-22.652c3.196-3.054,6.396-3.048,9.6-0.014c-7.037,7.547-14.074,15.094-21.111,22.637
		C300.877,598.767,297.68,598.776,294.481,597.98z"/>
	<path clip-path="url(#SVGID_2_)" fill-rule="evenodd" clip-rule="evenodd" fill="#040404" d="M517.009,575.314
		c-7.037,7.547-14.074,15.094-21.111,22.637c-3.192,0.815-6.392,0.825-9.589,0.029c7.033-7.551,14.067-15.104,21.101-22.652
		C510.604,572.274,513.805,572.28,517.009,575.314z"/>
	<path clip-path="url(#SVGID_2_)" fill-rule="evenodd" clip-rule="evenodd" fill="#040404" d="M524.672,597.98
		c7.032-7.551,14.066-15.104,21.099-22.652c3.182-3.062,6.382-3.028,9.6-0.067c-7.032,7.562-14.073,15.128-21.106,22.69
		C531.067,598.767,527.872,598.776,524.672,597.98z"/>
	<path clip-path="url(#SVGID_2_)" fill-rule="evenodd" clip-rule="evenodd" fill="#040404" d="M286.818,575.314
		c-7.038,7.547-14.074,15.094-21.111,22.637c-3.195,0.815-6.39,0.825-9.591,0.029c7.034-7.551,14.067-15.104,21.101-22.652
		C280.414,572.274,283.614,572.28,286.818,575.314z"/>
	<path clip-path="url(#SVGID_2_)" fill-rule="evenodd" clip-rule="evenodd" fill="#040404" d="M248.452,575.314
		c-7.037,7.547-14.073,15.094-21.11,22.637c-3.196,0.815-6.392,0.825-9.591,0.029c7.033-7.551,14.067-15.104,21.099-22.652
		C242.049,572.274,245.248,572.28,248.452,575.314z"/>
	<path clip-path="url(#SVGID_2_)" fill-rule="evenodd" clip-rule="evenodd" fill="#040404" d="M210.087,575.314
		c-7.036,7.547-14.074,15.094-21.111,22.637c-3.195,0.815-6.39,0.825-9.59,0.029c7.033-7.551,14.066-15.104,21.1-22.652
		C203.683,572.274,206.883,572.28,210.087,575.314z"/>
	<path clip-path="url(#SVGID_2_)" fill-rule="evenodd" clip-rule="evenodd" fill="#040404" d="M141.021,597.98
		c7.035-7.551,14.068-15.104,21.101-22.652c3.196-3.054,6.397-3.048,9.601-0.014c-7.037,7.547-14.074,15.094-21.111,22.637
		C147.417,598.767,144.221,598.776,141.021,597.98z"/>
	<path clip-path="url(#SVGID_2_)" fill-rule="evenodd" clip-rule="evenodd" fill="#040404" d="M14.381,454.945
		c7.593-6.993,15.186-13.985,22.778-20.98c3.055,3.187,3.062,6.367-0.012,9.544c-7.598,6.991-15.196,13.979-22.794,20.971
		C13.552,461.297,13.562,458.122,14.381,454.945z"/>
	<path clip-path="url(#SVGID_2_)" fill-rule="evenodd" clip-rule="evenodd" fill="#040404" d="M102.656,597.98
		c7.034-7.551,14.067-15.104,21.1-22.652c3.196-3.054,6.397-3.048,9.601-0.014c-7.037,7.547-14.074,15.094-21.111,22.637
		C109.052,598.767,105.855,598.776,102.656,597.98z"/>
	<path clip-path="url(#SVGID_2_)" fill-rule="evenodd" clip-rule="evenodd" fill="#040404" d="M64.292,597.973
		c7.033-7.549,14.066-15.1,21.1-22.646c3.196-3.052,6.397-3.046,9.601-0.012c-7.037,7.547-14.074,15.094-21.112,22.637
		C70.687,598.765,67.49,598.78,64.292,597.973z"/>
	<path clip-path="url(#SVGID_2_)" fill-rule="evenodd" clip-rule="evenodd" fill="#040404" d="M578.682,542.625
		c7.595-6.991,15.195-13.979,22.793-20.973c0.802,3.183,0.791,6.359-0.03,9.536c-7.61,6.993-15.221,13.985-22.831,20.977
		C575.632,548.964,575.597,545.783,578.682,542.625z"/>
	<path clip-path="url(#SVGID_2_)" fill-rule="evenodd" clip-rule="evenodd" fill="#040404" d="M37.148,519.76
		c-7.599,6.991-15.197,13.98-22.796,20.973c-0.799-3.183-0.79-6.361,0.029-9.536c7.593-6.992,15.186-13.983,22.778-20.979
		C40.214,513.402,40.221,516.583,37.148,519.76z"/>
	<path clip-path="url(#SVGID_2_)" fill-rule="evenodd" clip-rule="evenodd" fill="#040404" d="M601.444,493.062
		c-7.591,6.993-15.183,13.983-22.778,20.98c-3.053-3.187-3.057-6.365,0.016-9.544c7.595-6.989,15.195-13.981,22.793-20.971
		C602.276,486.71,602.266,489.885,601.444,493.062z"/>
	<path clip-path="url(#SVGID_2_)" fill-rule="evenodd" clip-rule="evenodd" fill="#040404" d="M37.147,481.636
		c-7.598,6.99-15.196,13.979-22.794,20.97c-0.802-3.181-0.792-6.359,0.027-9.536c7.593-6.99,15.186-13.983,22.778-20.978
		C40.214,475.276,40.221,478.455,37.147,481.636z"/>
	<path clip-path="url(#SVGID_2_)" fill-rule="evenodd" clip-rule="evenodd" fill="#040404" d="M578.682,466.373
		c7.595-6.99,15.195-13.981,22.793-20.972c0.802,3.183,0.791,6.359-0.03,9.536c-7.591,6.99-15.183,13.985-22.778,20.978
		C575.613,472.73,575.609,469.55,578.682,466.373z"/>
	<path clip-path="url(#SVGID_2_)" fill-rule="evenodd" clip-rule="evenodd" fill="#040404" d="M37.147,252.878
		c-7.598,6.991-15.196,13.981-22.794,20.971c-0.802-3.182-0.792-6.36,0.027-9.535c7.593-6.993,15.186-13.985,22.778-20.979
		C40.214,246.521,40.221,249.7,37.147,252.878z"/>
	<path clip-path="url(#SVGID_2_)" fill-rule="evenodd" clip-rule="evenodd" fill="#040404" d="M129.512,37.183
		c7.037-7.547,14.074-15.092,21.111-22.637c3.194-0.815,6.39-0.825,9.59-0.028c-7.033,7.551-14.066,15.101-21.099,22.652
		C135.917,40.223,132.716,40.218,129.512,37.183z"/>
	<path clip-path="url(#SVGID_2_)" fill-rule="evenodd" clip-rule="evenodd" fill="#040404" d="M601.444,226.181
		c-7.591,6.993-15.183,13.985-22.778,20.979c-3.053-3.186-3.057-6.366,0.016-9.544c7.595-6.99,15.195-13.98,22.793-20.97
		C602.276,219.826,602.266,223.005,601.444,226.181z"/>
	<path clip-path="url(#SVGID_2_)" fill-rule="evenodd" clip-rule="evenodd" fill="#040404" d="M37.147,214.752
		c-7.598,6.99-15.196,13.98-22.794,20.971c-0.802-3.182-0.792-6.36,0.027-9.536c7.593-6.992,15.186-13.984,22.778-20.979
		C40.214,208.395,40.221,211.574,37.147,214.752z"/>
	<path clip-path="url(#SVGID_2_)" fill-rule="evenodd" clip-rule="evenodd" fill="#040404" d="M578.682,199.49
		c7.595-6.99,15.195-13.98,22.793-20.971c0.802,3.181,0.791,6.359-0.03,9.536c-7.591,6.993-15.183,13.984-22.778,20.979
		C575.613,205.848,575.609,202.668,578.682,199.49z"/>
	<path clip-path="url(#SVGID_2_)" fill-rule="evenodd" clip-rule="evenodd" fill="#040404" d="M14.381,188.062
		c7.593-6.993,15.186-13.984,22.778-20.979c3.055,3.186,3.062,6.365-0.012,9.543c-7.598,6.99-15.196,13.98-22.794,20.971
		C13.552,194.416,13.562,191.238,14.381,188.062z"/>
	<path clip-path="url(#SVGID_2_)" fill-rule="evenodd" clip-rule="evenodd" fill="#040404" d="M578.682,161.364
		c7.595-6.991,15.195-13.98,22.793-20.971c0.802,3.182,0.791,6.359-0.03,9.535c-7.591,6.992-15.183,13.984-22.778,20.979
		C575.613,167.722,575.609,164.542,578.682,161.364z"/>
	<path clip-path="url(#SVGID_2_)" fill-rule="evenodd" clip-rule="evenodd" fill="#040404" d="M198.578,14.518
		c-7.033,7.551-14.066,15.101-21.1,22.652c-3.197,3.053-6.398,3.048-9.601,0.013c7.036-7.547,14.074-15.092,21.111-22.637
		C192.184,13.73,195.378,13.721,198.578,14.518z"/>
	<path clip-path="url(#SVGID_2_)" fill-rule="evenodd" clip-rule="evenodd" fill="#040404" d="M206.242,37.183
		c7.037-7.547,14.074-15.092,21.111-22.637c3.194-0.815,6.39-0.825,9.589-0.028c-7.033,7.551-14.066,15.101-21.099,22.652
		C212.647,40.223,209.446,40.218,206.242,37.183z"/>
	<path clip-path="url(#SVGID_2_)" fill-rule="evenodd" clip-rule="evenodd" fill="#040404" d="M37.147,138.5
		c-7.598,6.99-15.196,13.981-22.794,20.972c-0.802-3.182-0.792-6.36,0.027-9.535c7.593-6.992,15.186-13.985,22.778-20.979
		C40.214,132.142,40.221,135.323,37.147,138.5z"/>
	<path clip-path="url(#SVGID_2_)" fill-rule="evenodd" clip-rule="evenodd" fill="#040404" d="M601.444,111.803
		c-7.591,6.992-15.183,13.984-22.778,20.978c-3.053-3.184-3.057-6.364,0.016-9.542c7.595-6.99,15.195-13.981,22.793-20.971
		C602.276,105.449,602.266,108.626,601.444,111.803z"/>
	<path clip-path="url(#SVGID_2_)" fill-rule="evenodd" clip-rule="evenodd" fill="#040404" d="M14.381,111.81
		c7.593-6.992,15.186-13.984,22.778-20.978c3.055,3.184,3.062,6.364-0.012,9.542c-7.598,6.991-15.196,13.98-22.794,20.971
		C13.552,118.164,13.562,114.987,14.381,111.81z"/>
	<path clip-path="url(#SVGID_2_)" fill-rule="evenodd" clip-rule="evenodd" fill="#040404" d="M578.678,85.115
		c7.595-6.994,15.195-13.983,22.789-20.975c0.813,3.182,0.799,6.36-0.022,9.536c-7.591,6.992-15.183,13.984-22.778,20.979
		C575.613,91.47,575.609,88.29,578.678,85.115z"/>
	<path clip-path="url(#SVGID_2_)" fill-rule="evenodd" clip-rule="evenodd" fill="#040404" d="M543.863,14.518
		c-7.032,7.551-14.066,15.101-21.099,22.652c-3.196,3.053-6.397,3.048-9.604,0.013c7.04-7.547,14.077-15.092,21.114-22.637
		C537.469,13.73,540.663,13.721,543.863,14.518z"/>
	<path clip-path="url(#SVGID_2_)" fill-rule="evenodd" clip-rule="evenodd" fill="#040404" d="M474.798,37.183
		c7.037-7.547,14.073-15.092,21.111-22.637c3.192-0.815,6.392-0.825,9.589-0.028c-7.033,7.551-14.066,15.101-21.1,22.652
		C481.202,40.223,478.002,40.218,474.798,37.183z"/>
	<path clip-path="url(#SVGID_2_)" fill-rule="evenodd" clip-rule="evenodd" fill="#040404" d="M436.433,37.183
		c7.036-7.547,14.073-15.092,21.11-22.637c3.195-0.815,6.393-0.825,9.588-0.028c-7.029,7.551-14.066,15.101-21.096,22.652
		C442.836,40.223,439.635,40.218,436.433,37.183z"/>
	<path clip-path="url(#SVGID_2_)" fill-rule="evenodd" clip-rule="evenodd" fill="#040404" d="M398.066,37.183
		c7.037-7.547,14.072-15.092,21.113-22.637c3.192-0.815,6.389-0.825,9.59-0.028c-7.034,7.551-14.066,15.101-21.102,22.652
		C404.47,40.223,401.273,40.218,398.066,37.183z"/>
	<path clip-path="url(#SVGID_2_)" fill-rule="evenodd" clip-rule="evenodd" fill="#040404" d="M359.703,37.183
		c7.037-7.547,14.074-15.092,21.11-22.637c3.192-0.815,6.39-0.825,9.59-0.028c-7.034,7.551-14.067,15.101-21.101,22.652
		C366.105,40.223,362.907,40.218,359.703,37.183z"/>
	<path clip-path="url(#SVGID_2_)" fill-rule="evenodd" clip-rule="evenodd" fill="#040404" d="M321.336,37.183
		c7.039-7.547,14.075-15.092,21.112-22.637c3.192-0.815,6.392-0.825,9.593-0.028c-7.038,7.551-14.07,15.101-21.104,22.652
		C327.74,40.223,324.541,40.218,321.336,37.183z"/>
	<path clip-path="url(#SVGID_2_)" fill-rule="evenodd" clip-rule="evenodd" fill="#040404" d="M282.972,37.183
		c7.037-7.547,14.074-15.092,21.111-22.637c3.195-0.815,6.392-0.825,9.592-0.028c-7.035,7.551-14.068,15.101-21.102,22.652
		C289.378,40.223,286.176,40.218,282.972,37.183z"/>
	<path clip-path="url(#SVGID_2_)" fill-rule="evenodd" clip-rule="evenodd" fill="#040404" d="M275.309,14.518
		c-7.034,7.551-14.068,15.101-21.1,22.652c-3.197,3.053-6.397,3.048-9.602,0.013c7.038-7.547,14.074-15.092,21.111-22.637
		C268.913,13.73,272.109,13.721,275.309,14.518z"/>
	<path clip-path="url(#SVGID_2_)" fill-rule="evenodd" clip-rule="evenodd" fill="#040404" d="M14.381,416.816
		c7.593-6.991,15.186-13.983,22.778-20.977c3.055,3.187,3.062,6.363-0.012,9.542c-7.598,6.991-15.196,13.979-22.794,20.973
		C13.552,423.172,13.562,419.993,14.381,416.816z"/>
	<path clip-path="url(#SVGID_2_)" fill-rule="evenodd" clip-rule="evenodd" fill="#040404" d="M601.444,264.306
		c-7.591,6.993-15.183,13.986-22.778,20.979c-3.053-3.184-3.057-6.365,0.016-9.542c7.595-6.99,15.195-13.982,22.793-20.972
		C602.276,257.953,602.266,261.131,601.444,264.306z"/>
	<path clip-path="url(#SVGID_2_)" fill-rule="evenodd" clip-rule="evenodd" fill="#040404" d="M601.444,378.686
		c-7.591,6.991-15.183,13.983-22.778,20.979c-3.053-3.185-3.057-6.365,0.016-9.544c7.595-6.989,15.195-13.979,22.793-20.971
		C602.276,372.33,602.266,375.509,601.444,378.686z"/>
	<path clip-path="url(#SVGID_2_)" fill-rule="evenodd" clip-rule="evenodd" fill="#040404" d="M37.147,367.256
		c-7.598,6.99-15.196,13.981-22.794,20.97c-0.802-3.179-0.792-6.357,0.027-9.532c7.593-6.994,15.186-13.985,22.778-20.979
		C40.214,360.898,40.221,364.079,37.147,367.256z"/>
	<path clip-path="url(#SVGID_2_)" fill-rule="evenodd" clip-rule="evenodd" fill="#040404" d="M578.682,351.995
		c7.595-6.99,15.195-13.981,22.793-20.972c0.802,3.183,0.791,6.359-0.03,9.535c-7.591,6.991-15.183,13.986-22.778,20.979
		C575.613,358.351,575.609,355.174,578.682,351.995z"/>
	<path clip-path="url(#SVGID_2_)" fill-rule="evenodd" clip-rule="evenodd" fill="#040404" d="M91.146,37.183
		c7.037-7.547,14.074-15.092,21.111-22.637c3.194-0.815,6.391-0.825,9.591-0.028c-7.033,7.551-14.067,15.101-21.1,22.652
		C97.551,40.223,94.352,40.218,91.146,37.183z"/>
	<path clip-path="url(#SVGID_2_)" fill-rule="evenodd" clip-rule="evenodd" fill="#040404" d="M14.381,340.567
		c7.593-6.993,15.186-13.988,22.778-20.98c3.055,3.187,3.062,6.365-0.012,9.542c-7.598,6.992-15.196,13.981-22.794,20.975
		C13.552,346.921,13.562,343.742,14.381,340.567z"/>
	<path clip-path="url(#SVGID_2_)" fill-rule="evenodd" clip-rule="evenodd" fill="#040404" d="M14.381,302.44
		c7.593-6.991,15.186-13.984,22.778-20.978c3.055,3.186,3.062,6.365-0.012,9.542c-7.598,6.989-15.196,13.981-22.794,20.97
		C13.552,308.794,13.562,305.617,14.381,302.44z"/>
	<path clip-path="url(#SVGID_2_)" fill-rule="evenodd" clip-rule="evenodd" fill="#040404" d="M578.682,313.866
		c7.595-6.988,15.195-13.979,22.793-20.968c0.802,3.182,0.791,6.357-0.03,9.534c-7.591,6.995-15.183,13.984-22.778,20.979
		C575.613,320.226,575.609,317.047,578.682,313.866z"/>
	<path clip-path="url(#SVGID_2_)" fill-rule="evenodd" clip-rule="evenodd" fill="#070706" d="M16.891,567.338
		c6.759-6.332,13.518-12.665,20.277-18.997c3.243,3.385,4.808,7.048,1.938,11.456c-4.669-2.716-5.989,1.97-8.403,3.915
		c-3.689,2.971-7.102,6.288-10.632,9.459C17.974,571.785,17.649,569.443,16.891,567.338z"/>
	<path clip-path="url(#SVGID_2_)" fill-rule="evenodd" clip-rule="evenodd" fill="#070706" d="M551.526,37.191
		c6.362-6.721,12.728-13.439,19.092-20.16c2.128,0.749,4.481,1.083,5.882,3.164c-3.862,4.182-7.674,8.415-11.615,12.524
		c-1.799,1.876-3.867,3.507-1.832,6.396C558.616,41.967,554.929,40.412,551.526,37.191z"/>
	<path clip-path="url(#SVGID_2_)" fill-rule="evenodd" clip-rule="evenodd" fill="#FEFEFE" d="M551.526,37.191
		c3.84,0.642,7.683,1.284,11.526,1.925c7.816,3.466,12.073,9.901,14.853,17.572c0.259,9.476,0.517,18.951,0.772,28.428
		c-0.004,3.179-0.008,6.359-0.012,9.54c0.008,9.529,0.012,19.056,0.016,28.583c-0.004,3.182-0.008,6.361-0.016,9.542
		c0.008,9.528,0.012,19.057,0.016,28.583c-0.004,3.182-0.008,6.361-0.016,9.543c0.008,9.528,0.012,19.055,0.016,28.583
		c-0.004,3.182-0.008,6.361-0.016,9.543c0.008,9.529,0.012,19.055,0.016,28.583c-0.004,3.182-0.008,6.361-0.016,9.544
		c0.008,9.526,0.012,19.055,0.016,28.583c-0.004,3.181-0.008,6.361-0.016,9.542c0.008,9.53,0.012,19.057,0.016,28.582
		c-0.004,3.186-0.008,6.364-0.016,9.545c0.008,9.527,0.012,19.054,0.016,28.584c-0.004,3.183-0.008,6.359-0.016,9.542
		c0.008,9.526,0.012,19.057,0.016,28.583c-0.004,3.183-0.008,6.363-0.016,9.544c0.008,9.528,0.012,19.055,0.016,28.583
		c-0.004,3.181-0.008,6.359-0.016,9.542c0.008,9.528,0.012,19.056,0.016,28.584c-0.004,3.181-0.008,6.361-0.016,9.542
		c0.008,9.528,0.012,19.055,0.016,28.583c-0.004,3.181-0.008,6.361-0.016,9.544c0.008,9.526,0.012,19.055,0.016,28.583
		c-0.022,3.181-0.044,6.361-0.068,9.54c-2.375,13.037-10.124,20.736-23.243,23.096c-3.194,0.023-6.395,0.046-9.6,0.067
		c-9.584-0.004-19.173-0.006-28.762-0.014c-3.2,0.008-6.4,0.01-9.6,0.014c-9.589-0.004-19.179-0.006-28.764-0.014
		c-3.203,0.008-6.403,0.01-9.604,0.014c-9.588-0.004-19.178-0.006-28.762-0.014c-3.205,0.008-6.399,0.01-9.604,0.014
		c-9.588-0.004-19.174-0.006-28.762-0.014c-3.2,0.008-6.4,0.01-9.604,0.014c-9.585-0.004-19.174-0.006-28.762-0.014
		c-3.201,0.008-6.4,0.01-9.601,0.014c-9.59-0.004-19.178-0.006-28.766-0.014c-3.2,0.008-6.401,0.01-9.6,0.014
		c-9.588-0.004-19.175-0.006-28.764-0.014c-3.2,0.008-6.401,0.01-9.602,0.014c-9.588-0.004-19.175-0.006-28.765-0.014
		c-3.2,0.008-6.401,0.01-9.602,0.014c-9.586-0.004-19.173-0.006-28.764-0.014c-3.2,0.008-6.4,0.01-9.601,0.014
		c-9.587-0.004-19.175-0.006-28.764-0.014c-3.2,0.008-6.401,0.01-9.601,0.014c-9.588-0.004-19.175-0.006-28.764-0.014
		c-3.2,0.008-6.401,0.01-9.601,0.014c-9.588-0.004-19.176-0.006-28.764-0.014c-3.201,0.004-6.401,0.008-9.601,0.012
		c-9.59-0.018-19.179-0.04-28.768-0.058c-8.718-1.938-13.236-8.574-17.518-15.472c-0.646-3.818-1.292-7.638-1.938-11.456
		c-0.007-9.528-0.013-19.055-0.02-28.581c0.004-3.181,0.008-6.361,0.011-9.542c-0.003-9.528-0.007-19.056-0.012-28.582
		c0.005-3.183,0.009-6.363,0.012-9.544c-0.003-9.528-0.007-19.055-0.012-28.583c0.005-3.181,0.009-6.361,0.012-9.544
		c-0.003-9.526-0.007-19.055-0.012-28.583c0.005-3.183,0.009-6.359,0.012-9.542c-0.003-9.53-0.007-19.057-0.012-28.584
		c0.005-3.181,0.009-6.359,0.012-9.542c-0.003-9.526-0.007-19.055-0.012-28.585c0.005-3.181,0.009-6.359,0.012-9.542
		c-0.003-9.527-0.007-19.055-0.012-28.583c0.005-3.182,0.009-6.361,0.012-9.542c-0.003-9.528-0.007-19.056-0.012-28.584
		c0.005-3.182,0.009-6.361,0.012-9.543c-0.003-9.527-0.007-19.055-0.012-28.583c0.005-3.182,0.009-6.362,0.012-9.543
		c-0.003-9.527-0.007-19.055-0.012-28.583c0.005-3.182,0.009-6.361,0.012-9.543c-0.003-9.527-0.007-19.055-0.012-28.583
		c0.005-3.181,0.009-6.361,0.012-9.542c-0.003-9.528-0.007-19.056-0.012-28.583c0.005-3.182,0.009-6.362,0.012-9.542
		c0.001-9.528,0.002-19.056,0.003-28.583c0.842-3.776,1.684-7.55,2.526-11.327c3.105-4.395,6.867-8.139,11.292-11.222
		c3.801-0.839,7.601-1.677,11.401-2.515c9.588,0,19.176-0.002,28.764-0.002c3.201-0.005,6.4-0.009,9.602-0.013
		c9.587,0.004,19.175,0.008,28.764,0.013c3.201-0.005,6.401-0.009,9.602-0.013c9.587,0.004,19.175,0.008,28.764,0.013
		c3.2-0.005,6.401-0.009,9.601-0.013c9.587,0.004,19.175,0.008,28.764,0.013c3.2-0.005,6.401-0.009,9.602-0.013
		c9.587,0.004,19.175,0.008,28.763,0.013c3.2-0.005,6.401-0.009,9.602-0.013c9.588,0.004,19.175,0.008,28.763,0.013
		c3.201-0.005,6.402-0.009,9.602-0.013c9.588,0.004,19.175,0.008,28.763,0.013c3.2-0.005,6.401-0.009,9.601-0.013
		c9.589,0.004,19.179,0.008,28.767,0.013c3.2-0.005,6.4-0.009,9.6-0.013c9.59,0.004,19.178,0.008,28.764,0.013
		c3.203-0.005,6.399-0.009,9.602-0.013c9.591,0.004,19.174,0.008,28.765,0.013c3.199-0.005,6.398-0.009,9.603-0.013
		c9.585,0.004,19.174,0.008,28.763,0.013c3.2-0.005,6.4-0.009,9.601-0.013c9.589,0.004,19.177,0.008,28.763,0.013
		c3.202-0.003,6.403-0.009,9.604-0.013C532.349,37.178,541.938,37.183,551.526,37.191z"/>
	<path clip-path="url(#SVGID_2_)" fill-rule="evenodd" clip-rule="evenodd" d="M413.623,442.144
		c-27.68,19.591-55.815,38.508-84.436,56.72c-3.71,0.73-2.437-1.802-1.844-3.185c1.397-3.267,4.256-5.455,6.685-7.93
		c21.278-21.692,43.653-42.311,64.202-64.71c6.515-7.109,15.164-11.347,23.036-16.594c16.338-10.893,32.62-21.863,48.776-33.021
		c7.768-5.361,7.827-5.269,1.267-12.198c-0.889-0.933-1.428-2.07-1.751-3.315c0.694-8.91,8.361-12.501,13.764-17.823
		c2.454-1.548,5.106,0.216,7.577-0.509c3.326-14.407,12.979-23.317,25.782-29.488c0.004,9.531,0.009,19.063,0.009,28.598
		c-1.442,3.597-3.909,6.429-6.637,9.135c-27.226,27.003-54.44,54.016-81.584,81.097
		C423.759,433.612,418.098,437.213,413.623,442.144z"/>
	<path clip-path="url(#SVGID_2_)" fill-rule="evenodd" clip-rule="evenodd" d="M175.323,189.356
		c27.702-19.542,55.8-38.499,84.432-56.672c3.685-0.801,2.485,1.735,1.896,3.141c-1.372,3.277-4.232,5.465-6.663,7.942
		c-21.278,21.681-43.627,42.314-64.197,64.685c-13.177,11.848-28.784,20.278-43.445,30.006c-6.143,4.075-8.688,7.512-3.711,13.79
		c-3.424,7.403-10.135,11.809-15.828,17.144c-1.305,1.091-2.395,2.383-3.43,3.73c-4.844,5.477-10.16,10.496-15.407,15.572
		c-2.181,2.109-4.104,5.077-7.963,4.188c-0.007-9.532-0.014-19.063-0.02-28.596c1.718-4.235,4.868-7.368,8.074-10.482
		C131.164,232.335,152.182,209.77,175.323,189.356z"/>
	<path clip-path="url(#SVGID_2_)" fill-rule="evenodd" clip-rule="evenodd" d="M488.325,222.123
		c7.246,0.652,11.734,6.046,17.142,9.857c2.962,5.732-2.277,8.027-5.076,10.854c-20.392,20.609-41.087,40.918-61.564,61.442
		c-0.589,0.664-1.233,1.276-1.881,1.883c-6.884,5.486-11.511,13.568-19.99,17.241c-14.558,5.453-25.964,15.936-38.888,23.983
		c-7.722,4.808-14.018,12.129-23.716,13.538c-6.046-4.463-0.311-7.127,1.957-9.475c11.896-12.317,24.277-24.173,36.306-36.363
		c9.573-9.7,19.855-18.721,28.586-29.232c15.719-13.348,33.802-23.392,50.51-35.38c4.856-3.485,6.703-6.28,2.121-10.975
		C474.498,230.277,481.557,226.32,488.325,222.123z"/>
	<path clip-path="url(#SVGID_2_)" fill-rule="evenodd" clip-rule="evenodd" d="M121.12,386.61
		c-5.448-2.412-10.184-5.89-14.647-9.764c-2.882-5.637,2.18-7.968,4.947-10.888c12.834-13.536,26.893-25.889,39.207-39.93
		c5.492-6.403,13.279-9.746,19.887-14.664c3.006-2.237,6.871-3.7,7.319-8.194c2.494-7.868,8.798-12.396,15.052-16.974
		c9.9,3.067,17.497-1.405,25.199-6.902c5.026-3.586,9.593-8.591,16.596-8.642c5.979,4.514,0.223,7.146-2.041,9.484
		c-12.33,12.746-25.134,25.036-37.602,37.65c-9.123,9.228-18.908,17.822-27.211,27.837c-6.443,7.102-15.169,11.115-22.847,16.551
		c-3.501,2.476-6.492,4.966-6.549,9.615C134.19,378.496,130.373,385.694,121.12,386.61z"/>
	<path clip-path="url(#SVGID_2_)" fill-rule="evenodd" clip-rule="evenodd" d="M294.325,109.472
		c12.967-10.365,15.478-10.344,29.017,0.251c1.105,2.514-0.356,4.357-1.9,5.891c-7.861,7.805-15.006,16.363-24.066,22.931
		c-21.324,12.58-40.786,27.929-61.734,41.068c-3.712,2.328-7.029,5.543-11.829,5.663c-5.784-5.194,0.494-7.67,2.898-10.035
		C249.122,153.191,270.422,130.006,294.325,109.472z"/>
	<path clip-path="url(#SVGID_2_)" fill-rule="evenodd" clip-rule="evenodd" d="M302.31,508.267
		c-5.159-2.188-9.659-5.346-13.735-9.139c-1.441-2.969,0.73-4.787,2.381-6.518c6.96-7.293,14.186-14.328,21.41-21.364
		c3.516-3.426,6.896-4.198,10.341-0.043c11.347-5.025,20.641-13.214,31.125-19.52c3.717-2.237,6.943-5.596,11.826-5.311
		c4.577,3.127,0.861,5.668-0.998,7.568c-17.136,17.528-34.559,34.782-52.13,51.881C309.803,508.479,306.495,510.691,302.31,508.267z
		"/>
	<path clip-path="url(#SVGID_2_)" fill-rule="evenodd" clip-rule="evenodd" d="M282.851,495.311
		c-6.199-3.19-11.969-7.005-17.231-11.573c2.216-9.34,8.305-14.749,17.484-17.023c3.628,0.273,6.277,2.93,10.224,4.196
		c1.808-6.427-0.551-13.17,1.698-19.377c5.014-7.66,12.182-13.311,18.683-19.563c1.675-1.611,3.825-3.551,6.554-1.346
		c3.32,15.028,3.991,29.182-10.136,40.102C300.441,478.209,293.993,489.343,282.851,495.311z"/>
	<path clip-path="url(#SVGID_2_)" fill-rule="evenodd" clip-rule="evenodd" d="M329.07,113.549
		c6.075,4.134,13.774,6.178,17.443,13.405c-3.316,6.901-9.232,11.367-15.071,15.904c-3.236,1.175-5.789-2.178-8.948-1.299
		c-1.593,3.983,0.008,8.422-1.933,12.311c-4.958,7.106-11.574,12.652-17.842,18.49c-2.058,1.918-4.786,5.109-7.85,0.787
		c-2.024-8.215-1.384-16.483-0.515-24.75C303.831,134.736,315.672,123.375,329.07,113.549z"/>
	<path clip-path="url(#SVGID_2_)" fill-rule="evenodd" clip-rule="evenodd" fill="#010101" d="M516.686,348.215
		c0.11,1.895,0.042,3.816,0.349,5.677c2.291,13.872-3.083,22.976-15.486,30.193c-18.319,10.662-35.601,23.089-53.321,34.762
		c-2.536,0.769-2.662-0.831-2.221-2.481c0.771-2.884,3.054-4.782,5.069-6.791c18.93-18.87,37.868-37.734,56.903-56.496
		C510.361,350.727,512.444,347.451,516.686,348.215z"/>
	<path clip-path="url(#SVGID_2_)" fill-rule="evenodd" clip-rule="evenodd" fill="#040404" d="M516.686,348.215
		c-22.649,22.291-45.306,44.577-67.937,66.888c-1.047,1.033-2.653,2.185-0.522,3.744c-11.037,8.495-22.538,16.308-34.604,23.297
		c0.566-1.106,0.893-2.453,1.735-3.284c33.746-33.422,67.544-66.792,101.332-100.171C516.69,341.863,516.69,345.04,516.686,348.215z
		"/>
	<path clip-path="url(#SVGID_2_)" fill-rule="evenodd" clip-rule="evenodd" fill="#050504" d="M294.325,109.472
		c-4.303,7.579-11.398,12.632-17.358,18.677c-16.255,16.486-32.86,32.63-49.111,49.12c-1.799,1.826-6.35,2.65-4.21,7.025
		c0.526,2.278-0.997,3.601-2.515,4.669c-8.298,5.838-16.705,11.523-25.014,17.35c-2.038,1.428-4.346,2.838-7.02,1.13
		c8.021-11.108,18.781-19.626,28.252-29.359c12.604-12.951,25.682-25.451,38.311-38.378c1.778-1.821,6.392-2.639,4.095-7.021
		C270.812,124.26,282.25,116.398,294.325,109.472z"/>
	<path clip-path="url(#SVGID_2_)" fill-rule="evenodd" clip-rule="evenodd" d="M513.171,237.62
		c6.967,7.462,2.855,16.475,3.52,24.817c-1.286,2.772-2.765,5.417-5.06,7.526c-3.334,3.358-6.541,6.854-10.098,9.976
		c-6.427,5.643-8.052,5.003-9.81-3.623c-0.252-1.222-0.254-2.511-1.376-3.318c-7.371,1.51-11.585,9.441-19.642,9.394
		c-3.743-1.909-1.75-4.406-0.165-6.076c12.351-13.021,24.944-25.808,38.235-37.893C509.964,237.343,511.525,236.915,513.171,237.62z
		"/>
	<path clip-path="url(#SVGID_2_)" fill-rule="evenodd" clip-rule="evenodd" fill="#010101" d="M173.652,422.333
		c-9.585-6.372-19.171-12.739-28.757-19.11c1.896-8.772,8.981-13.002,15.624-17.625c11.703,3.438,21.673,9.455,29.029,19.351
		C187.514,413.688,180.862,418.262,173.652,422.333z"/>
	<path clip-path="url(#SVGID_2_)" fill-rule="evenodd" clip-rule="evenodd" fill="#050504" d="M302.31,508.267
		c3.049,0.295,5.479-0.729,7.677-2.924c18.392-18.373,36.849-36.68,55.276-55.016c0.978-0.97,1.549-2.032,0.035-3.073
		c4.466-9.478,14.758-12.104,22.062-18.245c3.327-2.797,6.876-7.024,12.501-4.933c-6.214,9.307-15.09,16.133-22.821,24.013
		c-14.43,14.716-29.269,29.038-43.708,43.746c-1.788,1.822-6.397,2.634-4.145,7.028c-5.18,4.572-10.763,8.723-17.211,11.121
		C309.032,511.081,305.038,511.511,302.31,508.267z"/>
	<path clip-path="url(#SVGID_2_)" fill-rule="evenodd" clip-rule="evenodd" fill="#010101" d="M330.852,142.543
		c4.315-6.093,9.562-11.263,15.662-15.589c11.024,4.217,20.549,10.667,28.762,19.067c-3.615,7.023-9.285,12.046-15.928,16.127
		C348.237,157.935,337.816,152.713,330.852,142.543z"/>
	<path clip-path="url(#SVGID_2_)" fill-rule="evenodd" clip-rule="evenodd" fill="#010101" d="M242.665,468.366
		c-9.615-6.31-19.228-12.617-28.841-18.926c1.396-9.031,8.266-13.13,15.452-16.958c12.178,3.06,22.555,8.802,29.451,19.688
		C255.22,459.373,249.688,464.598,242.665,468.366z"/>
	<path clip-path="url(#SVGID_2_)" fill-rule="evenodd" clip-rule="evenodd" fill="#010101" d="M415.543,172.727
		c10.679,4.727,20.046,11.415,28.776,19.053c-3.604,7.153-9.483,12.113-16.045,16.418c-11.736-3.793-21.897-9.895-29.376-19.909
		C402.056,180.584,406.526,174.256,415.543,172.727z"/>
	<path clip-path="url(#SVGID_2_)" fill-rule="evenodd" clip-rule="evenodd" d="M516.682,271.963
		c0.004,9.534,0.009,19.065,0.009,28.597c-3.477,8.225-10.48,13.446-16.84,19.119c-4.616,4.113-7.7,2.082-8.07-3.576
		c-0.481-7.25-0.893-14.547,0.446-21.78c1.057-3.288,3.76-5.494,5.549-8.31C503.423,280.469,506.832,271.924,516.682,271.963z"/>
	<path clip-path="url(#SVGID_2_)" fill-rule="evenodd" clip-rule="evenodd" d="M101.063,369.124
		c-0.024-9.528-0.047-19.057-0.072-28.587c3.987-8.275,11.282-13.619,17.788-19.624c1.79-1.653,4.28-3.312,6.406,0.006
		c2.286,7.22,0.582,14.712,1.527,22.025C121.771,355.152,112.977,363.647,101.063,369.124z"/>
	<path clip-path="url(#SVGID_2_)" fill-rule="evenodd" clip-rule="evenodd" d="M101.008,331.005
		c-0.006-9.528-0.012-19.062-0.017-28.595c3.901-8.192,11.109-13.479,17.527-19.414c2.005-1.854,4.781-3.734,6.89,0.316
		c1.783,8.19,1.33,16.409,0.361,24.635C119.159,317.36,112.569,326.823,101.008,331.005z"/>
	<path clip-path="url(#SVGID_2_)" fill-rule="evenodd" clip-rule="evenodd" fill="#050504" d="M175.323,189.356
		c-0.551,1.116-0.849,2.487-1.688,3.317c-24.183,23.903-48.419,47.754-72.647,71.612c0.004-3.18,0.01-6.361,0.014-9.542
		c8.146-13.129,20.847-22.049,31.109-33.227c2.769-3.016,6.295-5.324,8.59-8.815C151.73,204.17,163.288,196.413,175.323,189.356z"/>
	<path clip-path="url(#SVGID_2_)" fill-rule="evenodd" clip-rule="evenodd" fill="#010101" d="M488.325,222.123
		c-3.147,6.774-11.706,9.342-13.521,17.154c-10.728-1.887-18.465-7.969-24.127-16.981c3.557-7.504,7.806-14.257,17.124-15.455
		C475.701,210.534,482.345,215.884,488.325,222.123z"/>
	<path clip-path="url(#SVGID_2_)" fill-rule="evenodd" clip-rule="evenodd" fill="#050504" d="M513.171,237.62
		c-14.014,13.621-28.031,27.233-42.029,40.865c-0.994,0.965-1.489,2.044,0.015,3.052c-4.698,9.667-15.288,12.34-22.761,18.728
		c-3.068,2.623-6.479,6.47-11.684,4.328c7.022-10.259,16.889-17.854,25.45-26.657c12.362-12.713,25.133-25.032,37.662-37.582
		c2.396-2.401,5.643-4.338,5.643-8.374C508.461,233.289,511.441,234.612,513.171,237.62z"/>
	<path clip-path="url(#SVGID_2_)" fill-rule="evenodd" clip-rule="evenodd" fill="#040404" d="M494.398,292.802
		c0,8.996,0,17.997,0,28.636c8.194-7.676,15.243-14.274,22.292-20.877c0,3.177-0.005,6.354-0.009,9.53
		c-10.622,9.71-22.871,18.254-24.888,34.157c-4.594-25.334-4.604-50.667,0.004-76.002c4.58,3.619,0.813,8.886,2.954,13.64
		c6.979-2.817,10.116-10.339,16.498-13.763c1.813-1.343,3.627-1.641,5.44,0c0,1.282-0.005,2.562-0.009,3.841
		c-7.144,3.429-12.297,9.046-16.942,15.223C497.393,288.524,495.073,289.891,494.398,292.802z"/>
	<path clip-path="url(#SVGID_2_)" fill-rule="evenodd" clip-rule="evenodd" fill="#040404" d="M282.851,495.311
		c7.639-10.124,17.101-18.584,26.387-27.051c7.614-6.945,11.691-14.309,10.215-24.646c-0.619-4.332-0.3-8.798-0.404-13.203
		c-2.77-2.87-2.005-6.593-2.474-10.025c-0.12-9.263-0.063-18.527,0.105-27.799c-0.008-3.649-0.086-7.319,2.948-10.086
		c1.363-0.457,2.375-0.052,3.047,1.213c1.682,3.211,1.678,6.714,1.693,10.188c0.09,23.066,0.027,46.139,0.045,69.207
		c0.004,4.505-0.554,8.821-2.948,12.751c-2.879-1.104-1.368-4.561-3.613-6.958c-9.85,10.344-20.658,19.201-29.276,30.228
		C286.245,498.481,284.159,497.472,282.851,495.311z"/>
	<path clip-path="url(#SVGID_2_)" fill-rule="evenodd" clip-rule="evenodd" fill="#010101" d="M160.409,385.785
		c-3.844,6.981-11.215,10.86-15.515,17.438c-6.021-4.243-12.042-8.489-18.065-12.734c3.792-7.086,9.818-12.015,16.213-16.599
		C150.809,374.998,157.214,378.082,160.409,385.785z"/>
	<path clip-path="url(#SVGID_2_)" fill-rule="evenodd" clip-rule="evenodd" fill="#010101" d="M415.543,172.727
		c-6.109,4.387-11.461,9.514-15.702,15.738c-8.817,0.324-13.763-5.249-18.121-11.734c3.887-7.813,7.716-15.708,18.456-15.434
		C405.669,164.613,411.859,167.007,415.543,172.727z"/>
	<path clip-path="url(#SVGID_2_)" fill-rule="evenodd" clip-rule="evenodd" fill="#010101" d="M229.514,433.874
		c-6.129,4.293-11.333,9.512-15.691,15.566c-5.711-3.958-11.421-7.917-17.131-11.873c1.833-8.982,9.105-13.145,15.9-17.744
		C219.858,422.57,228.497,423.694,229.514,433.874z"/>
	<path clip-path="url(#SVGID_2_)" fill-rule="evenodd" clip-rule="evenodd" fill="#010101" d="M173.652,422.333
		c5.11-5.57,10.22-11.138,15.33-16.707c9.149-1.38,13.505,5.112,18.256,10.971c-3.787,7.955-7.685,15.787-18.463,15.545
		C183.735,428.874,178.693,425.604,173.652,422.333z"/>
	<path clip-path="url(#SVGID_2_)" fill-rule="evenodd" clip-rule="evenodd" fill="#010101" d="M242.665,468.366
		c4.39-5.953,9.516-11.171,15.609-15.422c8.996-3.053,12.503,4.403,17.5,9.018c-1.686,9.132-8.854,13.486-15.885,17.958
		C253.703,476.721,247.972,472.857,242.665,468.366z"/>
	<path clip-path="url(#SVGID_2_)" fill-rule="evenodd" clip-rule="evenodd" fill="#010101" d="M359.676,161.466
		c4.374-5.973,9.525-11.167,15.6-15.445c7.123,0.819,11.604,6.126,16.997,9.882c-1.881,8.789-9.02,12.99-15.613,17.674
		C369.43,171.717,362.651,169.22,359.676,161.466z"/>
	<path clip-path="url(#SVGID_2_)" fill-rule="evenodd" clip-rule="evenodd" fill="#010101" d="M428.552,207.688
		c4.181-6.356,9.646-11.451,15.768-15.909c7.015,2.017,12.212,6.893,17.775,11.19c-3.762,7.088-9.791,11.997-16.168,16.572
		C438.163,218.456,431.8,215.327,428.552,207.688z"/>
	<path clip-path="url(#SVGID_2_)" fill-rule="evenodd" clip-rule="evenodd" fill="#010101" d="M140.701,212.703
		c2.141,1.491,0.632,2.669-0.428,3.706c-13.073,12.797-26.176,25.562-39.272,38.335c-2.414-11.093,1.812-18.624,11.729-24.168
		C122.375,225.186,131.403,218.706,140.701,212.703z"/>
	<path clip-path="url(#SVGID_2_)" fill-rule="evenodd" clip-rule="evenodd" fill="#050505" d="M101.063,369.124
		c8.694-7.816,17.416-15.606,24.573-24.921c6.556-9.376,15.228-15.545,26.737-17.416c-11.654,15.134-26.688,27.035-39.618,40.947
		c-2.527,2.716-6.208,4.703-6.283,9.112C103.075,375.376,101.337,372.756,101.063,369.124z"/>
	<path clip-path="url(#SVGID_2_)" fill-rule="evenodd" clip-rule="evenodd" fill="#040404" d="M329.07,113.549
		c-9.832,11.793-21.107,22.168-32.35,32.576c-3.417-2.94-2.162-6.171-0.588-9.421c9.983-8.083,18.988-17.14,27.209-26.981
		C325.63,110.438,327.722,111.441,329.07,113.549z"/>
	<path clip-path="url(#SVGID_2_)" fill-rule="evenodd" clip-rule="evenodd" fill="#040404" d="M123.674,281.468
		c-7.561,6.981-15.122,13.962-22.683,20.942c0.005-3.177,0.011-6.351,0.017-9.529c7.564-6.982,15.13-13.966,22.695-20.948
		C126.5,275.121,126.509,278.3,123.674,281.468z"/>
	<path clip-path="url(#SVGID_2_)" fill-rule="evenodd" clip-rule="evenodd" fill="#040404" d="M101.008,331.005
		c7.565-6.98,15.13-13.962,22.695-20.945c2.796,3.188,2.808,6.364-0.029,9.535c-7.561,6.98-15.122,13.962-22.683,20.942
		C100.996,337.36,101.002,334.182,101.008,331.005z"/>
	<path clip-path="url(#SVGID_2_)" fill-rule="evenodd" clip-rule="evenodd" fill="#060605" d="M259.888,479.92
		c5.135-5.705,10.27-11.407,15.406-17.113c4.472-0.854,7.113,0.931,7.886,5.407c-8.139,2.625-12.462,9.505-17.562,15.523
		C263.341,483.011,261.225,482.043,259.888,479.92z"/>
	<path clip-path="url(#SVGID_2_)" fill-rule="evenodd" clip-rule="evenodd" fill="#060605" d="M376.898,173.024
		c5.126-5.709,10.252-11.416,15.374-17.122c3.023,1.234,5.771,2.874,7.903,5.394c-8.117,2.654-12.47,9.495-17.533,15.552
		C379.548,177.328,377.097,176.846,376.898,173.024z"/>
	<path clip-path="url(#SVGID_2_)" fill-rule="evenodd" clip-rule="evenodd" fill="#060605" d="M188.775,432.142
		c8.129-2.634,12.469-9.49,17.545-15.531c3.116-0.505,5.58-0.043,5.744,3.828c-5.123,5.71-10.249,11.416-15.372,17.129
		C193.669,436.311,190.895,434.699,188.775,432.142z"/>
	<path clip-path="url(#SVGID_2_)" fill-rule="evenodd" clip-rule="evenodd" fill="#050505" d="M445.75,219.338
		c4.258-6.633,9.849-11.947,16.345-16.369c2.497,0.428,4.299,1.866,5.707,3.871c-6.524,4.391-12.072,9.743-16.337,16.361
		C448.143,223.986,446.249,222.677,445.75,219.338z"/>
	<path clip-path="url(#SVGID_2_)" fill-rule="evenodd" clip-rule="evenodd" fill="#050505" d="M143.207,374.146
		c-4.296,6.599-9.854,11.948-16.377,16.343c-2.48-0.451-4.28-1.895-5.709-3.878c6.555-4.348,12.058-9.739,16.367-16.316
		C140.852,369.438,142.736,370.755,143.207,374.146z"/>
	<path clip-path="url(#SVGID_2_)" fill-rule="evenodd" clip-rule="evenodd" fill="#040404" d="M516.69,268.123
		c-1.813,0-3.627,0-5.44,0c1.16-2.509,3.091-4.296,5.44-5.686C516.69,264.333,516.69,266.228,516.69,268.123z"/>
	<path clip-path="url(#SVGID_2_)" fill-rule="evenodd" clip-rule="evenodd" fill="#FEFEFE" d="M321.465,475.858
		c-1.252-31.122-0.918-62.244-0.177-93.372c8.869-10.663,20.688-17.081,33.08-22.671c17.411-11.448,34.806-22.92,52.248-34.322
		c3.072-2.007,5.778-5.226,10.184-3.797c3.352,0.755,6.386,2.184,9.128,4.224c4.835,3.313,9.744,6.509,14.724,9.604
		c2.079,1.467,4.203,2.868,6.392,4.175c8.113,5.891,17.151,10.591,23.799,18.348c3.739,2.856,7.479,5.712,12.099,9.245
		c-27.855,19.039-55.468,37.911-83.079,56.785c-12.081,6.904-23.477,14.819-34.562,23.178
		C350.688,456.792,336.074,466.324,321.465,475.858z"/>
	<path clip-path="url(#SVGID_2_)" fill-rule="evenodd" clip-rule="evenodd" fill="#FCFCFC" d="M491.798,268.246
		c1.593,25.335,1.608,50.67-0.004,76.002c-2.562-0.987-3.931-4.451-7.415-3.521c-9.307-2.055-14.895-10.182-23.135-13.981
		c-2.102-1.495-4.238-2.949-6.423-4.341c-4.986-4.231-10.551-7.664-15.965-11.315c-1.61-1.891-5.298-3.155-2.072-6.549l-0.072,0.051
		c12.073-6.815,23.416-14.705,34.444-23.056C478.039,277.107,484.916,272.676,491.798,268.246z"/>
	<path clip-path="url(#SVGID_2_)" fill-rule="evenodd" clip-rule="evenodd" fill="#010101" d="M461.676,324.454
		c8.277,4.449,15.765,9.987,22.703,16.273c-3.495,6.557-12.006,9.243-13.537,17.318c-9.379-4.43-17.29-11.026-25.515-17.15
		C449.164,333.829,454.916,328.646,461.676,324.454z"/>
	<path clip-path="url(#SVGID_2_)" fill-rule="evenodd" clip-rule="evenodd" fill="#FEFEFE" d="M296.133,136.704
		c0.196,3.141,0.392,6.281,0.588,9.421c0,9.521,0.003,19.041,0.004,28.562c2.708,2.79,2.07,6.417,2.499,9.776
		c0.028,8.894,0.124,17.791-0.143,26.677c0.114,1.586,0.099,3.173-0.052,4.751c-0.05,2.009-0.083,4.026-0.116,6.04
		c0.276,6.333-2.673,10.764-8.036,13.99c-7.078,4.259-13.457,9.531-20.279,14.162c-9.158,5.429-17.811,11.63-26.687,17.493
		c-2.915,1.925-5.931,3.448-9.358,4.147c-6.131,3.894-12.54,7.424-18.324,11.777c-7.316,5.506-14.385,9.985-23.331,3.458
		c-10.372-4.821-18.907-12.616-29.095-17.737c-4.333-4.669-9.939-7.64-15.166-11.123c-1.984-1.566-4.235-2.9-5.021-5.539
		c-9.465-7.667-9.424-7.607,1.043-14.713c14.849-10.083,29.628-20.264,44.437-30.403c12.072-6.897,23.437-14.836,34.549-23.149
		c21.76-14.416,43.513-28.842,65.288-43.236C291.27,139.513,293.729,138.15,296.133,136.704z"/>
	<path clip-path="url(#SVGID_2_)" fill-rule="evenodd" clip-rule="evenodd" fill="#FDFDFD" d="M123.674,319.595
		c0.01-3.179,0.019-6.355,0.029-9.535c-0.01-9.53-0.019-19.062-0.029-28.591c0.01-3.176,0.019-6.354,0.029-9.535
		c0.551-1.221,1.103-2.44,1.653-3.662c3.426,0.611,6.646,1.712,9.42,3.886c5.781,3.771,11.454,7.705,17.301,11.38
		c8.948,7.081,20.314,11.002,27.315,20.623c3.605,3.514-0.695,4.187-2.218,5.29c-8.17,5.91-16.516,11.584-24.801,17.338
		c-8.913,5.806-17.826,11.612-26.737,17.416C122.127,336.227,125.454,327.71,123.674,319.595z"/>
	<path clip-path="url(#SVGID_2_)" fill-rule="evenodd" clip-rule="evenodd" fill="#060606" d="M133.371,273.186
		c-2.672-1.638-5.343-3.275-8.015-4.915c6.086-5.236,12.173-10.474,18.26-15.712c2.494,0.396,4.287,1.814,5.673,3.827
		C145.529,263.435,139.405,268.266,133.371,273.186z"/>
	<path clip-path="url(#SVGID_2_)" fill-rule="evenodd" clip-rule="evenodd" fill="#FEFEFE" d="M445.75,219.338
		c1.903,1.289,3.808,2.575,5.715,3.863c7.778,5.358,15.558,10.718,23.34,16.075c2.529,1.789,5.06,3.577,8.33,5.89
		c-20.522,14.118-40.423,27.804-60.322,41.49c-3.726,3.702-7.26,7.941-13.446,4.718c-5.444-3.045-10.428-6.808-15.67-10.178
		c-2.817-1.963-5.681-3.861-8.6-5.678c-5.541-3.252-10.199-7.886-16.344-10.188c-9.065-8.083-20.196-13.229-29.746-20.639
		c-5.436-4.392-12.057-7.111-17.111-12.058c-2.669-3.12-3.155-6.87-3.186-10.738c-0.217-27.893-0.528-55.788,1.855-83.624
		c0.049-0.576,0.576-1.104,0.929-1.64c3.118,1.97,6.239,3.94,9.357,5.912c9.606,6.308,19.215,12.614,28.824,18.923
		c5.296,4.506,11.044,8.354,17.223,11.558c1.331,2.14,3.462,3.093,5.744,3.825c5.276,4.542,11.031,8.38,17.198,11.615
		c9.077,7.136,18.661,13.526,28.711,19.224C434.284,211.572,440.019,215.456,445.75,219.338z"/>
	<path clip-path="url(#SVGID_2_)" fill-rule="evenodd" clip-rule="evenodd" fill="#040404" d="M409.573,289.48
		c5.545,4.308,8.847-1.792,13.239-2.823c-2.605,6.099-8.186,9.624-12.606,14.088c-17.263,17.437-34.813,34.593-52.062,52.04
		c-1.761,1.777-6.28,2.747-3.776,7.03c-11.028,7.557-22.056,15.113-33.08,22.671c-0.6,0.023-1.199,0.049-1.796,0.089
		c-0.168-0.414-0.336-0.829-0.509-1.243c0.805-4.41,4.399-6.809,7.259-9.663c17.889-17.885,35.869-35.68,53.793-53.537
		c2.664-2.656,5.814-4.958,7.085-8.736c0.683-2.054,1.315-4.14,3.244-5.451c4.691,1.347,6.408-2.663,9.047-4.998
		C402.881,295.88,405.541,291.954,409.573,289.48z"/>
	<path clip-path="url(#SVGID_2_)" fill-rule="evenodd" clip-rule="evenodd" fill="#070706" d="M436.784,304.541
		c-1.182,3.253,2.447,3.598,3.406,5.555c-3.35,7.261-9.841,11.77-15.289,17.192c-3.105-1.28-6.047-2.797-8.102-5.592
		C424.666,317.364,428.704,308.625,436.784,304.541z"/>
	<path clip-path="url(#SVGID_2_)" fill-rule="evenodd" clip-rule="evenodd" fill="#FEFEFE" d="M143.207,374.146
		c-1.907-1.285-3.813-2.567-5.72-3.852c-4.529-3.421-1.01-4.873,1.592-6.664c9.041-6.231,18.047-12.506,27.067-18.768
		c10.485-9.578,22.226-17.426,34.422-24.654c8.534-1.197,13.241,5.825,19.719,9.054c9.46,6.564,19.18,12.75,28.754,19.151
		c4.908,3.476,9.972,6.726,15.071,9.922c2.138,1.514,4.326,2.947,6.579,4.295c8.175,6.08,16.752,11.595,24.969,17.642
		c5.682,7.1,2.594,15.495,3.535,23.3c0.189,3.339-0.323,6.678,0.087,10.015c0.042,9.162,0.055,18.32-0.124,27.48
		c0.376,3.634-1.012,6.845-2.439,10.047c0,7.888,0,15.772,0,24.867c-5.12-2.937-9.33-5.352-13.54-7.767
		c-2.103-2.557-4.882-4.146-7.886-5.407c-5.419-3.717-9.865-9.101-17.021-9.862c-8.195-8.426-17.734-14.854-28.759-19.07
		c-3.635-7.276-11.392-9.268-17.451-13.436c-1.349-2.116-3.463-3.094-5.744-3.828c-5.421-4.22-10.578-8.852-17.338-10.984
		c-8.367-8.26-18.988-13.311-28.573-19.841C155.092,381.299,149.39,377.371,143.207,374.146z"/>
	<path clip-path="url(#SVGID_2_)" fill-rule="evenodd" clip-rule="evenodd" fill="#050504" d="M200.737,321.604
		c-11.05,8.457-22.507,16.321-34.59,23.259c3.269-6.722,9.488-10.843,14.533-15.949c16.641-16.848,33.599-33.385,50.245-50.227
		c1.734-1.752,6.198-2.755,3.628-6.963c10.942-8.782,22.831-16.185,34.724-23.584c2.546,5.727-2.733,7.811-5.48,10.589
		C242.922,279.829,221.747,300.634,200.737,321.604z"/>
	<path clip-path="url(#SVGID_2_)" fill-rule="evenodd" clip-rule="evenodd" fill="#010101" d="M179.393,304.16
		c-9.591-6.37-19.183-12.741-28.774-19.115c-0.837-9.881,7.285-12.791,13.526-17.166c10.929,4.359,20.53,10.696,28.754,19.079
		C189.751,293.743,181.139,296.288,179.393,304.16z"/>
	<path clip-path="url(#SVGID_2_)" fill-rule="evenodd" clip-rule="evenodd" fill="#040404" d="M296.721,451.113
		c0.003-3.188,0.003-6.375,0.004-9.56c5.839-8.644,11.768-17.187,22.308-20.866c0.009,3.24,0.012,6.48,0.016,9.721
		C311.606,437.312,304.163,444.214,296.721,451.113z"/>
	<path clip-path="url(#SVGID_2_)" fill-rule="evenodd" clip-rule="evenodd" fill="#060606" d="M321.494,136.632
		c-0.234,29.477-0.359,58.955-0.827,88.428c-0.072,4.364,3.136,5.816,5.141,8.431c-3.538,7.581-11.129,11.754-15.716,18.46
		c-5.453,3.521-10.906,7.041-16.382,10.521c-2.723,1.729-5.51,4.466-9.201,1.746c-0.508-3.689,2.123-5.792,4.25-8.079
		c3.031-3.257,6.315-6.273,9.42-9.462c22.266-22.875,18.459-12.772,18.688-45.219c-0.086-1.529-0.012-3.049-0.023-4.579
		c-0.003-2.129-0.131-4.248-0.221-6.374c-0.071-8.928-0.078-17.85,0.053-26.777c-0.349-3.565,0.999-6.728,2.35-9.891
		C320.636,148.214,317.006,141.847,321.494,136.632z"/>
	<path clip-path="url(#SVGID_2_)" fill-rule="evenodd" clip-rule="evenodd" fill="#040404" d="M319.025,153.838
		c-0.012,3.241-0.023,6.48-0.033,9.722c-5.881,8.53-11.716,17.113-22.269,20.669c0-3.181,0-6.361,0.001-9.542
		C304.158,167.737,311.59,160.787,319.025,153.838z"/>
	<path clip-path="url(#SVGID_2_)" fill-rule="evenodd" clip-rule="evenodd" fill="#040404" d="M494.398,292.802
		c-1.113-4.59,1.323-5.845,5.341-5.616C498.592,289.653,496.706,291.427,494.398,292.802z"/>
	<path clip-path="url(#SVGID_2_)" fill-rule="evenodd" clip-rule="evenodd" d="M319.032,420.688
		c-7.435,6.957-14.871,13.91-22.308,20.866c-0.001-9.528-0.001-19.055-0.001-28.583c5.869-8.568,11.593-17.289,22.32-20.68
		C319.041,401.756,319.036,411.223,319.032,420.688z"/>
	<path clip-path="url(#SVGID_2_)" fill-rule="evenodd" clip-rule="evenodd" fill="#040404" d="M319.044,392.291
		c-7.438,6.894-14.881,13.786-22.32,20.68c0-3.181,0-6.363,0-9.544c5.956-8.689,11.771-17.528,22.643-20.975l0.123,0.121
		C319.345,385.813,319.194,389.051,319.044,392.291z"/>
	<path clip-path="url(#SVGID_2_)" fill-rule="evenodd" clip-rule="evenodd" fill="#010101" d="M424.901,327.288
		c2.475-8.036,9.57-12.008,15.289-17.192c5.264,3.51,10.529,7.022,15.793,10.536c-1.393,8.241-7.97,14.829-16.383,16.395
		C434.12,334.651,429.417,331.11,424.901,327.288z"/>
	<path clip-path="url(#SVGID_2_)" fill-rule="evenodd" clip-rule="evenodd" fill="#050505" d="M439.601,337.026
		c6.547-4.395,12.089-9.778,16.383-16.395c1.896,1.272,3.797,2.547,5.692,3.822c-4.207,6.697-9.858,11.979-16.349,16.441
		C442.819,340.479,441.019,339.033,439.601,337.026z"/>
	<path clip-path="url(#SVGID_2_)" fill-rule="evenodd" clip-rule="evenodd" d="M319.025,201.652
		c3.166,18.489-1.2,33.734-17.293,45.412c-6.429,4.665-12.856,10.298-16.575,17.91c-0.196,4.189-3.78,5.534-6.53,7.45
		c-13.199,9.201-26.195,18.74-40.027,26.963c-6.482,3.857-9.223,7.656-4.368,14.358c-2.481,7.822-9.203,12.145-14.637,17.532
		c-6.595-2.631-10.708-10.041-18.859-9.673c-2.338-4.349,2.237-5.209,4.01-6.999c19.362-19.551,38.965-38.87,58.433-58.321
		c2.396-2.395,5.649-4.263,6.097-8.145c7.005-4.861,13.775-10.112,21.098-14.442c4.706-2.783,6.747-6.178,6.347-11.357
		c1.302-2.582,2.529-5.203,4.213-7.583C306.272,209.45,309.522,201.282,319.025,201.652z"/>
	<path clip-path="url(#SVGID_2_)" fill-rule="evenodd" clip-rule="evenodd" d="M296.724,184.229
		c7.422-6.892,14.848-13.783,22.272-20.673c0.006,9.472,0.018,18.938,0.029,28.406c-1.129,2.707-2.676,5.134-4.838,7.152
		c-5.946,4.407-8.972,12.5-17.463,13.698C296.724,203.285,296.724,193.757,296.724,184.229z"/>
	<path clip-path="url(#SVGID_2_)" fill-rule="evenodd" clip-rule="evenodd" fill="#010101" d="M164.144,267.879
		c-3.16,6.771-11.724,9.337-13.526,17.166c-5.749-3.952-11.497-7.905-17.247-11.859c3.3-7.478,9.731-12.023,15.918-16.799
		C154.76,259.556,161.03,261.704,164.144,267.879z"/>
	<path clip-path="url(#SVGID_2_)" fill-rule="evenodd" clip-rule="evenodd" fill="#040404" d="M296.725,212.812
		c5.648-5.075,11.296-10.147,16.942-15.223c1.783-1.334,3.57-1.646,5.358-0.009c0,1.356,0.003,2.711,0,4.07
		c-7.296,3.147-12.192,8.951-16.867,15.003c-1.812,1.324-3.625,1.648-5.435,0C296.724,215.372,296.724,214.093,296.725,212.812z"/>
	<path clip-path="url(#SVGID_2_)" fill-rule="evenodd" clip-rule="evenodd" fill="#040404" d="M296.724,216.653
		c1.811,0,3.623,0,5.435,0c-1.158,2.514-3.09,4.293-5.438,5.687C296.724,220.444,296.724,218.548,296.724,216.653z"/>
	<path clip-path="url(#SVGID_2_)" fill-rule="evenodd" clip-rule="evenodd" fill="#010101" d="M340.549,243.271
		c9.456,7.154,20.96,11.508,28.845,20.819c-0.596,8.862-9.113,11.819-13.482,17.87c-11.694-3.729-21.104-10.932-29.702-19.368
		C326.389,252.788,335.198,249.296,340.549,243.271z"/>
	<path clip-path="url(#SVGID_2_)" fill-rule="evenodd" clip-rule="evenodd" fill="#010101" d="M340.549,243.271
		c-1.27,8.551-11.912,10.51-13.448,18.875c-7.993-0.702-13.209-5.409-17.249-11.811c3.291-7.512,9.742-12.065,15.956-16.845
		C331.289,235.904,336.044,239.402,340.549,243.271z"/>
	<path clip-path="url(#SVGID_2_)" fill-rule="evenodd" clip-rule="evenodd" fill="#010101" d="M409.573,289.48
		c-2.594,7.563-9.604,11.37-14.678,16.799c-2.068,2.22-2.697-1.563-4.279-1.994c-6.352,0.979-9.442-3.414-12.677-7.584
		c1.556-9.471,7.371-14.922,16.506-17.233C399.489,282.808,404.528,286.143,409.573,289.48z"/>
	<path clip-path="url(#SVGID_2_)" fill-rule="evenodd" clip-rule="evenodd" fill="#010101" d="M355.873,281.258
		c1.78-7.842,10.343-10.411,13.521-17.167c7.196,0.811,11.683,6.236,17.16,9.97c0.229,10.371-7.947,13.827-15.095,18.138
		C364.732,290.716,358.86,288.013,355.873,281.258z"/>
	<path clip-path="url(#SVGID_2_)" fill-rule="evenodd" clip-rule="evenodd" fill="#060606" d="M371.009,291.073
		c5.942-4.985,12.758-9.179,15.545-17.013c3.006,1.264,5.797,2.838,7.892,5.409c-5.931,4.996-12.743,9.191-15.547,17.009
		C374.428,297.326,371.787,295.544,371.009,291.073z"/>
	<path clip-path="url(#SVGID_2_)" fill-rule="evenodd" clip-rule="evenodd" fill="#FEFEFE" d="M371.009,291.073
		c2.113,2.549,4.886,4.146,7.89,5.405c3.904,2.602,7.81,5.204,11.718,7.808c2.002,3.081-1.746,3.722-2.436,5.66
		c-2.323,4.387-6.58,6.716-10.446,9.353c-19.369,13.199-39.326,25.536-58.354,39.243c-3.335,2.402-6.815,4.687-11.181,4.856
		c-9.286-1.959-15.201-9.611-23.284-13.615c-2.129-1.512-4.26-3.028-6.509-4.374c-5.689-3.897-11.275-7.95-17.37-11.238
		c-8.712-7.604-19.804-12.012-27.852-20.505c-1.014-3.737-5.161-4.334-7.862-7.557c20.09-13.814,39.963-27.475,59.833-41.135
		c8.891-3.783,15.309-11.684,24.694-14.638c5.748,3.938,11.5,7.873,17.249,11.811c9.588,6.37,19.181,12.742,28.772,19.112
		C360.918,284.53,365.964,287.802,371.009,291.073z"/>
	<path clip-path="url(#SVGID_2_)" fill-rule="evenodd" clip-rule="evenodd" d="M307.915,361.838
		c9.959-3.646,17.709-10.834,26.436-16.436c18.079-11.606,35.901-23.612,53.83-35.457c1.926,4.559-2.619,5.64-4.612,7.676
		c-21.283,21.725-42.769,43.249-64.202,64.831c-7.547,6.991-15.094,13.983-22.643,20.975c-0.106-5.199-0.434-10.409-0.242-15.599
		c0.127-3.416-0.694-5.952-3.88-7.481C294.243,371.347,302.521,367.771,307.915,361.838z"/>
	<path clip-path="url(#SVGID_2_)" fill-rule="evenodd" clip-rule="evenodd" fill="#010101" d="M233.187,313.665
		c10.61,4.843,20.056,11.416,28.775,19.072c-0.782,8.679-8.717,11.877-13.545,17.455c-9.606-6.306-19.213-12.61-28.82-18.916
		C221.083,323.088,229.991,320.555,233.187,313.665z"/>
	<path clip-path="url(#SVGID_2_)" fill-rule="evenodd" clip-rule="evenodd" fill="#010101" d="M307.915,361.838
		c-2.556,8.252-11.181,11.543-15.313,18.509c-7.946-5.515-15.892-11.026-23.837-16.541c3.91-6.971,9.518-12.258,16.382-16.3
		C292.736,352.286,300.327,357.061,307.915,361.838z"/>
	<path clip-path="url(#SVGID_2_)" fill-rule="evenodd" clip-rule="evenodd" fill="#010101" d="M248.417,350.192
		c1.547-8.094,10.361-10.615,13.545-17.455c6.805,2.107,12.059,6.666,17.484,10.947c-1.718,8.497-7.832,14.548-16.406,16.243
		C257.614,357.5,252.879,354.05,248.417,350.192z"/>
	<path clip-path="url(#SVGID_2_)" fill-rule="evenodd" clip-rule="evenodd" fill="#050505" d="M263.04,359.928
		c6.595-4.291,12.003-9.764,16.406-16.243c2.353,0.609,4.253,1.882,5.701,3.821c-4.331,6.556-9.849,11.932-16.382,16.3
		C266.284,363.351,264.486,361.894,263.04,359.928z"/>
	<path clip-path="url(#SVGID_2_)" fill-rule="evenodd" clip-rule="evenodd" fill="#040404" d="M319.025,197.58
		c-1.788,0.004-3.571,0.006-5.358,0.009c1.154-2.474,3.046-4.25,5.361-5.629C319.025,193.835,319.025,195.708,319.025,197.58z"/>
</g>
</svg>
