<?xml version="1.0" standalone="no"?><!DOCTYPE svg PUBLIC "-//W3C//DTD SVG 1.1//EN" "http://www.w3.org/Graphics/SVG/1.1/DTD/svg11.dtd"><svg class="icon" height="512" viewBox="0 0 1024 1024" version="1.1" xmlns="http://www.w3.org/2000/svg"><path d="M896.700709 17.402345 123.518175 17.402345c-60.95835 0-110.550839 49.593512-110.550839 110.550839l0 773.181511c0 60.95835 49.593512 110.550839 110.550839 110.550839l773.181511 0c60.95835 0 110.550839-49.592488 110.550839-110.550839L1007.250524 127.954207C1007.250524 66.995857 957.658036 17.402345 896.700709 17.402345zM975.148385 901.135718c0 43.2572-35.1915 78.4487-78.4487 78.4487L123.518175 979.584418c-43.2572 0-78.4487-35.1915-78.4487-78.4487L45.069475 127.954207c0-43.2572 35.1915-78.4487 78.4487-78.4487l773.181511 0c43.2572 0 78.4487 35.1915 78.4487 78.4487L975.148385 901.135718zM786.389324 247.469208c-35.886325-35.886325-77.674057-64.065108-124.202767-83.752496-48.185442-20.388353-99.351775-30.725792-152.077627-30.725792-52.726875 0-103.893208 10.337439-152.077627 30.725792-46.529733 19.687388-88.316441 47.866171-124.20379 83.752496-35.886325 35.886325-64.064085 77.674057-83.751473 124.20379-20.388353 48.184419-30.724769 99.349729-30.724769 152.076604 0 83.606163 26.064632 163.377998 75.376735 230.68801 23.723308 32.383548 52.16201 60.853973 84.526115 84.619236 32.757055 24.053835 68.828598 42.759873 107.212814 55.600319l1.102101 0.36839 1.144056 0.205685c16.431228 2.958378 26.831089-2.232854 32.663934-7.109931 7.67275-6.41306 12.071943-16.161075 12.071943-26.743084 0-3.354398-0.059352-9.222035-0.134053-16.652262-0.140193-13.921058-0.333598-32.986275-0.333598-53.115732l-0.021489-19.807115-19.381419 4.109598c-0.903579 0.191358-90.599438 18.565844-107.763352-33.704636l-0.314155-0.870834c-1.302669-3.310396-9.591449-23.61893-23.39892-41.059138 4.710278 4.066619 9.244548 9.240455 13.029758 15.82236 7.561209 13.314237 16.184611 23.12058 25.096585 30.326702-2.564405-1.1328-5.089925-0.854461-6.429433 0.853437-2.460028 1.929955-1.464351 6.319939 1.929955 9.245572 3.425006 3.425006 7.812943 3.922333 9.775644 1.464351 1.780553-1.781576 1.092891-5.65172-1.323135-8.540514 14.683421 10.553357 29.835516 14.468526 42.081421 15.564487 24.718985 2.210341 47.114041-5.938246 58.262962-10.996448l8.011464-3.63376 1.24741-8.708336c3.37691-23.573905 13.232372-35.579333 18.806321-40.635489l26.352181-23.908526-35.363416-3.932566c-77.380368-8.603959-156.483984-35.406394-156.483984-168.971389 0-34.396391 11.565407-64.577784 34.374902-89.706091l6.753821-7.439436-3.741207-9.325389c-3.394307-8.459672-12.737092-37.870516 0.693802-78.742389 8.742105 0.605797 23.335475 4.749164 44.054355 15.024182 20.682042 10.256598 38.064944 21.905916 38.233789 22.019503l6.148024 4.14132 7.138584-1.994424c28.364001-7.92346 59.262732-12.111852 89.357144-12.111852 30.095435 0 60.995189 4.188392 89.35919 12.111852l7.139607 1.994424 6.147-4.14132c0.170892-0.11461 17.295921-11.608386 37.94624-21.877263 20.8734-10.379395 35.55682-14.559601 44.342927-15.167444 13.427824 40.869826 4.086062 70.28374 0.691755 78.743412l-3.741207 9.325389 6.753821 7.439436c22.810518 25.125237 34.374902 55.30663 34.374902 89.705068 0 133.5169-79.354326 160.340825-156.980287 168.971389l-36.755112 4.087085 28.086685 24.056905c5.942339 5.088902 19.762089 20.839631 19.762089 57.077973 0 33.602306-0.208754 62.829977-0.346901 82.169441-0.068562 9.694803-0.118704 16.699334-0.118704 20.785396 0 10.582009 4.399193 20.329001 12.071943 26.743084 4.64888 3.88754 12.20088 7.975649 23.397896 7.975649 2.848884 0 5.934153-0.265036 9.267061-0.865717l1.144056-0.205685 1.103124-0.36839c38.383192-12.840446 74.454736-31.546483 107.210767-55.600319 32.364105-23.765263 60.802808-52.235688 84.526115-84.619236 49.311079-67.312058 75.375711-147.081847 75.375711-230.68801 0-52.726875-10.337439-103.892185-30.724769-152.076604C850.454432 325.144288 822.277696 283.355533 786.389324 247.469208zM624.792902 863.801415c-3.52222 0.487094-5.114484-0.102331-5.361101-0.308015-0.163729-0.138146-0.558725-0.941442-0.558725-2.114151 0-3.971451 0.049119-10.927887 0.11768-20.555152 0.13917-19.386536 0.347924-48.682769 0.347924-82.399685 0-25.299199-5.440919-43.86709-12.278651-57.207933 31.380708-5.617951 68.226894-16.762779 98.069573-41.717124 39.877219-33.346479 60.095703-85.585237 60.095703-155.268296 0-39.370683-12.261255-74.321706-36.46347-104.027262 5.344728-18.517749 11.200086-55.715953-7.097652-101.907994l-2.819209-7.119141-7.30743-2.287089c-17.274432-5.409197-41.8522 0.00307-75.129094 16.549931-14.936177 7.427156-28.015054 15.33015-35.355229 19.961634-29.164227-7.474228-60.443627-11.406794-90.943268-11.406794-30.499641 0-61.778019 3.933589-90.941222 11.406794-7.339152-4.631484-20.419052-12.534478-35.355229-19.961634-33.276894-16.545838-57.851593-21.958104-75.129094-16.549931l-7.30743 2.287089-2.820232 7.118118c-18.300808 46.195112-12.444427 83.391269-7.098675 101.909018-24.203238 29.706579-36.46347 64.657602-36.46347 104.026238 0 69.505004 20.123316 121.676224 59.811224 155.063635 24.747637 20.818141 56.385195 34.388205 98.259908 41.934065-4.106528 8.05035-7.2798 17.030885-9.391904 26.672476-22.930245 8.419763-57.9529 12.274558-80.669274-27.727505-24.422226-42.461067-68.355831-46.39261-70.214155-46.538943l-1.043772-0.049119c-6.680143-0.088004-27.010167-0.366344-32.239262 16.110933-4.745071 14.953573 8.537444 27.882024 20.516266 36.09201l1.12052 0.768503 1.235131 0.569982c13.286608 6.125511 27.269064 31.052227 33.101909 45.593408 11.242042 33.55728 40.614 53.519937 84.980463 57.738006 15.186887 1.445932 29.594015 0.774643 40.469714-0.315178 0.066515 13.20679 0.188288 25.282826 0.285502 34.908044 0.074701 7.339152 0.13303 13.137205 0.13303 16.327874 0 1.171686-0.394996 1.976004-0.559748 2.114151-0.246617 0.205685-1.834788 0.795109-5.358031 0.308015C249.450329 814.390052 151.453411 677.898401 151.453411 523.749602c0-197.763133 160.892387-358.65552 358.65552-358.65552s358.656543 160.892387 358.656543 358.65552C868.765473 677.898401 770.769578 814.389028 624.792902 863.801415zM405.692812 761.238504c-4.389984 0.964978-7.315616 3.89061-6.818289 7.315616 0.467651 2.925632 4.389984 4.88731 8.779967 3.89061 4.389984-0.964978 7.315616-3.89061 6.818289-6.816243C414.005129 762.700809 410.082796 760.740154 405.692812 761.238504zM377.891629 766.199493c-4.389984 0-7.814989 2.460028-7.814989 5.385661 0 3.393283 3.425006 5.851265 8.312316 5.354961 4.389984 0 7.783267-2.428306 7.783267-5.354961C386.172223 768.160147 382.281613 765.702166 377.891629 766.199493zM339.847152 765.80552c-0.9967 2.927679 1.929955 6.350638 6.318916 7.317663 3.924379 1.462305 8.314363 0 9.279341-2.927679 0.964978-2.925632-1.960655-6.350638-6.350638-7.812943C345.202113 761.415536 340.812129 762.879887 339.847152 765.80552z" /></svg>